<svg width="80" height="80" viewBox="0 0 80 80" fill="none" xmlns="http://www.w3.org/2000/svg">
<rect width="80" height="80" rx="40" fill="#D9FF00"/>
<path d="M40.0009 36C37.6459 36 35.6719 37.9025 35.6719 40.328C35.6719 42.7145 37.6139 44.6561 40.0009 44.6561C42.388 44.6561 44.33 42.7145 44.33 40.328C44.33 37.9074 42.3607 36 40.0009 36Z" fill="black"/>
<path d="M40.9848 18.0335C40.5218 17.3216 39.4801 17.3227 39.0177 18.0335C38.881 18.2444 35.6719 23.268 35.6719 29.5506C35.6719 31.4891 35.8172 33.3659 36.0859 35.0287C38.427 33.3341 41.5838 33.3388 43.9167 35.0287C44.1855 33.3659 44.3308 31.4891 44.3308 29.5506C44.3308 23.268 41.1216 18.2444 40.9848 18.0335Z" fill="black"/>
<path d="M33.3629 39.7422C31.703 40.3688 29.951 41.2365 28.4218 42.1204C22.9846 45.2616 20.2433 50.5555 20.1285 50.7788C19.7432 51.5376 20.269 52.4374 21.112 52.4807C23.4521 52.6147 28.504 52.077 32.7512 49.6221C34.4284 48.6528 35.9799 47.5891 37.2837 46.5245C34.668 45.3548 33.0561 42.6216 33.3629 39.7422Z" fill="black"/>
<path d="M59.8701 50.7788C59.7552 50.5555 57.014 45.2616 51.5768 42.1204C49.9011 41.152 48.2075 40.3396 46.6357 39.7422C46.943 42.6263 45.3264 45.3566 42.7148 46.5246C44.1145 47.6677 45.7013 48.7284 47.2474 49.6222C51.0849 51.8398 55.9984 52.6462 58.8866 52.4808C59.7297 52.4373 60.2554 51.5376 59.8701 50.7788Z" fill="black"/>
</svg>
