<svg width="32" height="32" viewBox="0 0 32 32" fill="none" xmlns="http://www.w3.org/2000/svg">
<path d="M28 26.6667H26.6666V4.00008C26.6666 3.20008 26.1333 2.66675 25.3333 2.66675H6.66663C5.86663 2.66675 5.33329 3.20008 5.33329 4.00008V26.6667H3.99996C3.19996 26.6667 2.66663 27.2001 2.66663 28.0001C2.66663 28.8001 3.19996 29.3334 3.99996 29.3334H28C28.8 29.3334 29.3333 28.8001 29.3333 28.0001C29.3333 27.2001 28.8 26.6667 28 26.6667ZM12 8.00008H13.3333C14.1333 8.00008 14.6666 8.53341 14.6666 9.33342C14.6666 10.1334 14.1333 10.6667 13.3333 10.6667H12C11.2 10.6667 10.6666 10.1334 10.6666 9.33342C10.6666 8.53341 11.2 8.00008 12 8.00008ZM10.6666 14.6667C10.6666 13.8667 11.2 13.3334 12 13.3334H13.3333C14.1333 13.3334 14.6666 13.8667 14.6666 14.6667C14.6666 15.4667 14.1333 16.0001 13.3333 16.0001H12C11.2 16.0001 10.6666 15.4667 10.6666 14.6667ZM20 26.6667H12V20.0001C12 19.2001 12.5333 18.6667 13.3333 18.6667H18.6666C19.4666 18.6667 20 19.2001 20 20.0001V26.6667ZM20 16.0001H18.6666C17.8666 16.0001 17.3333 15.4667 17.3333 14.6667C17.3333 13.8667 17.8666 13.3334 18.6666 13.3334H20C20.8 13.3334 21.3333 13.8667 21.3333 14.6667C21.3333 15.4667 20.8 16.0001 20 16.0001ZM20 10.6667H18.6666C17.8666 10.6667 17.3333 10.1334 17.3333 9.33342C17.3333 8.53341 17.8666 8.00008 18.6666 8.00008H20C20.8 8.00008 21.3333 8.53341 21.3333 9.33342C21.3333 10.1334 20.8 10.6667 20 10.6667Z" fill="#0E0E0E"/>
</svg>
