<svg width="32" height="32" viewBox="0 0 32 32" fill="none" xmlns="http://www.w3.org/2000/svg">
<path d="M6.8125 14.5938C6.8125 14.2052 6.49797 13.8907 6.10938 13.8907H4.70313C4.31453 13.8907 4 14.2052 4 14.5938C4 14.9825 4.31453 15.2969 4.70313 15.2969H6.10938C6.49797 15.2969 6.8125 14.9825 6.8125 14.5938ZM27.2969 13.8907H25.8906C25.502 13.8907 25.1875 14.2052 25.1875 14.5938C25.1875 14.9825 25.502 15.2969 25.8906 15.2969H27.2969C27.6855 15.2969 28 14.9825 28 14.5938C28 14.2052 27.6855 13.8907 27.2969 13.8907ZM7.82688 9.0629L6.60869 8.35978C6.27236 8.16529 5.84242 8.28065 5.64813 8.61721C5.45388 8.95378 5.56923 9.38353 5.90556 9.57778L7.1238 10.2809C7.45797 10.4739 7.88842 10.3615 8.08436 10.0235C8.27861 9.6869 8.1632 9.25715 7.82688 9.0629ZM26.0944 19.6098L24.8762 18.9067C24.5391 18.7129 24.1094 18.8275 23.9156 19.1641C23.7214 19.5007 23.8368 19.9304 24.1731 20.1247L25.3913 20.8278C25.7255 21.0208 26.1559 20.9084 26.3519 20.5703C26.5461 20.2338 26.4308 19.804 26.0944 19.6098ZM10.4691 6.27271C10.6649 6.61073 11.0955 6.72318 11.4297 6.5302C11.7663 6.33571 11.8816 5.90596 11.6871 5.56959L10.984 4.3514C10.7898 4.01577 10.3578 3.90023 10.0234 4.09396C9.68688 4.28821 9.57156 4.71815 9.766 5.05452L10.4691 6.27271ZM7.12375 18.9067L5.90556 19.6098C5.56923 19.804 5.45388 20.2338 5.64813 20.5703C5.84406 20.9085 6.27452 21.021 6.60869 20.8278L7.82692 20.1247C8.16325 19.9304 8.27861 19.5007 8.08436 19.1641C7.88936 18.8275 7.45736 18.7129 7.12375 18.9067ZM24.8763 10.2809L26.0944 9.57778C26.4308 9.38353 26.5461 8.95378 26.3519 8.61721C26.1569 8.28065 25.7249 8.16534 25.3913 8.35978L24.1731 9.0629C23.8368 9.25715 23.7214 9.6869 23.9156 10.0235C24.1116 10.3617 24.5421 10.4741 24.8763 10.2809ZM20.5703 6.5302C20.9045 6.72318 21.3351 6.61073 21.5309 6.27271L22.234 5.05452C22.4285 4.71815 22.3131 4.28821 21.9766 4.09396C21.6408 3.90041 21.2103 4.01577 21.016 4.3514L20.3129 5.56959C20.1184 5.90596 20.2338 6.3359 20.5703 6.5302ZM20.8759 8.58974C19.0597 7.11281 16.6799 6.54501 14.3431 7.03242C11.3076 7.6649 8.91255 10.1538 8.38375 13.2247C7.94078 15.7968 8.78894 18.3971 10.6517 20.1818C11.6426 21.1299 12.2451 22.3987 12.4113 23.7344H15.2969V20.4317L12.6409 16.4477L11.2841 15.0909C11.0095 14.8162 11.0095 14.3713 11.2841 14.0967C11.5588 13.822 12.0037 13.822 12.2784 14.0967L13.1875 15.0058L14.0966 14.0967C14.3713 13.822 14.8162 13.822 15.0909 14.0967L16 15.0058L16.9091 14.0967C17.1838 13.822 17.6287 13.822 17.9034 14.0967L18.8125 15.0058L19.7216 14.0967C19.9963 13.822 20.4412 13.822 20.7159 14.0967C20.9905 14.3714 20.9906 14.8162 20.7159 15.0909L19.3591 16.4477L16.7031 20.4317V23.7344H19.5484C19.6305 22.4711 20.2301 21.2339 21.3009 20.2263C22.8472 18.7701 23.7344 16.7169 23.7344 14.5938C23.7344 12.2549 22.6927 10.0667 20.8759 8.58974Z" fill="white"/>
<path d="M17.4063 15.5881L16.4971 16.4973C16.2225 16.772 15.7775 16.772 15.5029 16.4973L14.5938 15.5882L14.0922 16.0897L16 18.9515L17.9078 16.0897L17.4063 15.5881ZM12.4844 25.8908C12.4844 27.0539 13.4307 28.0002 14.5938 28.0002H17.4063C18.5694 28.0002 19.5156 27.0539 19.5156 25.8908V25.1408H12.4844V25.8908Z" fill="white"/>
</svg>
