<svg width="494" height="398" viewBox="0 0 494 398" fill="none" xmlns="http://www.w3.org/2000/svg">
<mask id="mask0_4467_2778" style="mask-type:alpha" maskUnits="userSpaceOnUse" x="0" y="0" width="490" height="390">
<rect width="490" height="390" fill="#D9D9D9"/>
</mask>
<g mask="url(#mask0_4467_2778)">
<g opacity="0.03">
<path d="M206.102 166.456C216.955 174.896 226.597 177.79 238.535 182.369C244.084 185.491 248.823 189.609 254.836 194.61L222.483 233.723C221.994 234.347 221.762 235.136 221.842 235.93L223.943 255.881L245.342 262.696C245.739 252.763 245.983 246.555 246.03 245.218L246.021 245.159L246.047 244.8C246.692 235.913 253.566 231.862 259.676 231.862C266.027 231.862 272.593 236.246 273.256 244.632L275.83 241.45C277.618 259.86 279.889 280.271 281.095 291.239C283.083 309.325 287.606 354.359 288.691 365.752C289.776 377.145 297.489 445.805 299.177 460.755C300.864 475.706 303.156 491.859 305.207 498.852C307.258 505.848 316.782 502.591 316.782 495.235C316.782 487.879 308.946 397.218 306.051 354.176C304.524 331.432 304.208 308.611 301.844 285.925C299.553 263.915 292.742 242.838 291.273 220.709C291.181 219.346 291.105 218.11 291.033 217.021C292.168 216.506 293.24 215.881 294.244 215.168C297.962 212.522 300.675 208.623 301.73 204.108C305.616 202.673 310.988 200.711 314.912 199.369C323.955 196.474 361.208 183.456 381.286 177.304C401.359 171.156 452.178 154.61 458.233 152.618C464.292 150.631 482.378 144.031 482.378 142.947C481.201 139.601 478.398 136.706 475.955 136.343C469.901 136.343 454.527 139.782 444.489 142.039C434.454 144.301 395.932 154.065 388.247 156.057C380.559 158.044 351.712 165.641 338.332 169.531C324.951 173.417 316.722 176.401 311.658 180.38C307.51 183.637 302.147 185.865 297.26 187.207C296.948 186.865 296.619 186.536 296.281 186.216C292.787 182.932 288.031 180.911 282.799 180.911C280.229 180.911 277.765 181.405 275.52 182.291C274.317 182.764 273.178 183.35 272.11 184.038C267.211 180.692 249.344 168.476 241.065 162.475C231.419 155.484 110.13 72.7756 86.7446 55.6565C63.3545 38.5365 24.8913 11.5306 17.0553 6.3443C9.21926 1.16271 4.15559 -1.97276 1.38321 1.40332C1.38321 1.40332 1.18854 1.61385 0.602618 2.26435C-0.751747 4.08764 -0.0347761 6.86003 4.9409 11.5605C9.91189 16.261 47.6787 44.8037 72.0348 62.8897C96.3881 80.9766 195.253 158.017 206.102 166.456ZM280.598 186.791C283.151 183.93 288.556 184.589 292.674 188.263C293.029 188.58 293.362 188.905 293.674 189.243C296.675 192.496 297.661 196.623 296.075 199.319C295.915 199.597 295.725 199.856 295.51 200.095C292.952 202.96 287.547 202.298 283.428 198.627C279.31 194.953 278.04 189.657 280.598 186.791ZM260.575 199.286C260.604 199.059 260.639 198.835 260.676 198.612C260.714 198.388 260.757 198.168 260.802 197.949C260.853 197.695 260.912 197.443 260.976 197.194C261.022 197.008 261.068 196.827 261.123 196.645C261.406 195.649 261.773 194.687 262.217 193.767C262.272 193.636 262.339 193.506 262.407 193.379C262.529 193.13 262.66 192.881 262.799 192.64C262.976 192.324 263.162 192.016 263.356 191.716C263.368 191.699 263.376 191.683 263.389 191.666C263.499 191.493 263.617 191.319 263.736 191.151C263.842 190.999 263.951 190.847 264.061 190.695C264.323 190.349 264.592 190.007 264.875 189.678C264.993 189.538 265.115 189.399 265.238 189.264C265.685 188.766 266.162 188.293 266.665 187.851C266.791 187.733 266.918 187.623 267.048 187.513C267.069 187.496 267.087 187.479 267.107 187.466C267.242 187.348 267.373 187.239 267.513 187.133C267.614 187.049 267.719 186.968 267.825 186.887C267.935 186.803 268.044 186.723 268.155 186.643C268.302 186.534 268.45 186.433 268.597 186.331C268.897 186.124 269.201 185.925 269.513 185.74C269.614 185.676 269.715 185.617 269.817 185.558C269.909 185.503 270.002 185.449 270.096 185.398C270.252 185.309 270.408 185.225 270.568 185.141C266.906 188.036 264.344 192.21 263.597 196.956C263.572 197.116 263.547 197.272 263.525 197.433C263.428 198.226 263.374 199.037 263.374 199.859C263.374 208.341 269.087 215.523 276.97 217.937C278.691 218.468 280.519 218.764 282.409 218.798C282.535 218.806 282.671 218.806 282.801 218.806C285.472 218.806 288.021 218.278 290.342 217.326C290.216 217.415 290.085 217.494 289.954 217.575C289.802 217.667 289.646 217.76 289.489 217.849C289.469 217.866 289.442 217.882 289.413 217.891C289.253 217.988 289.097 218.076 288.932 218.161C288.903 218.178 288.873 218.195 288.84 218.208C288.683 218.292 288.532 218.373 288.372 218.449C288.33 218.474 288.288 218.496 288.245 218.512C288.089 218.588 287.929 218.664 287.768 218.736C287.57 218.829 287.363 218.918 287.156 219.002C286.937 219.095 286.709 219.18 286.481 219.264C286.46 219.272 286.439 219.281 286.414 219.289C286.203 219.365 285.992 219.441 285.776 219.508C285.755 219.517 285.734 219.521 285.709 219.529C285.54 219.584 285.371 219.638 285.198 219.685C285.071 219.724 284.944 219.761 284.818 219.791C284.767 219.808 284.717 219.821 284.661 219.833C284.505 219.875 284.345 219.914 284.189 219.951C284.117 219.968 284.046 219.985 283.974 219.998C283.822 220.036 283.669 220.065 283.514 220.095C283.067 220.184 282.611 220.255 282.155 220.314C281.995 220.336 281.834 220.356 281.674 220.365C281.636 220.369 281.602 220.373 281.564 220.378C281.446 220.39 281.328 220.398 281.206 220.412C280.962 220.432 280.716 220.445 280.467 220.454C280.205 220.467 279.944 220.47 279.678 220.47C277.665 220.47 275.725 220.171 273.901 219.609C266.086 217.217 260.42 210.103 260.42 201.692C260.419 200.877 260.474 200.076 260.575 199.286Z" fill="black"/>
<path fill-rule="evenodd" clip-rule="evenodd" d="M242.019 419.594C245.763 326.222 249.015 245.142 248.995 245.02C249.999 231.247 269.887 231.433 270.351 245.535L269.832 686.644C269.827 690.505 266.696 693.632 262.835 693.632H238.344C234.373 693.632 231.2 690.333 231.352 686.366C232.69 652.138 237.461 533.183 241.705 427.387L242.019 419.594Z" fill="#2D2D2D"/>
<path d="M1015.62 693.801H963.507C961.968 654.706 954.624 472.287 954.644 472.158C954.135 465.166 944.039 465.26 943.803 472.419L944.063 693.801H833.362C834.002 692.697 834.356 691.407 834.303 690.033C831.741 624.551 816.618 248.949 816.66 248.687C815.656 234.913 795.768 235.1 795.304 249.202L795.823 690.311C795.824 691.584 796.171 692.773 796.766 693.8H471.726C471.727 693.771 471.734 693.745 471.734 693.716L471.995 471.476C471.761 464.371 461.742 464.277 461.235 471.217C461.257 471.349 453.637 660.584 452.346 693.576C452.344 693.652 452.359 693.724 452.361 693.8H155.13C155.13 693.771 155.138 693.745 155.138 693.716L155.399 471.476C155.165 464.371 145.145 464.277 144.639 471.217C144.661 471.349 137.041 660.584 135.75 693.576C135.747 693.652 135.762 693.724 135.765 693.8H65.4288C62.5376 693.8 60.1938 696.144 60.1938 699.035V700.765C60.1938 703.656 62.5376 706 65.4288 706H1015.62C1018.51 706 1020.85 703.656 1020.85 700.765V699.035C1020.86 696.145 1018.51 693.801 1015.62 693.801Z" fill="black"/>
</g>
</g>
</svg>
