<svg width="32" height="32" viewBox="0 0 32 32" fill="none" xmlns="http://www.w3.org/2000/svg">
<path d="M15 19.0003C14.2247 19.0004 13.4795 18.7004 12.9205 18.1631C12.3616 17.6258 12.0324 16.893 12.0019 16.1183C11.9713 15.3436 12.2419 14.5872 12.7569 14.0076C13.2719 13.428 13.9912 13.0703 14.7641 13.0095C14.8426 13.0034 14.9213 13.0003 15 13.0003V11.0003C14.9996 10.6619 15.0857 10.329 15.25 10.0331C15.1684 10.0117 15.0844 10.0006 15 10.0003H11.7302C11.9341 9.65007 12.026 9.24593 11.9938 8.84201C11.9529 8.32686 11.7143 7.8475 11.3279 7.50441C10.9414 7.16131 10.4372 6.98111 9.92081 7.00157C9.40445 7.02203 8.91605 7.24156 8.55797 7.61416C8.19989 7.98676 7.99993 8.48349 8 9.00026C8 9.35157 8.09307 9.69661 8.26975 10.0003H5C4.73478 10.0003 4.48043 10.1056 4.29289 10.2932C4.10536 10.4807 4 10.735 4 11.0003V21.0003C4 21.2655 4.10536 21.5198 4.29289 21.7074C4.48043 21.8949 4.73478 22.0003 5 22.0003H8.26975C8.0659 22.3505 7.97396 22.7546 8.00625 23.1585C8.04707 23.6737 8.28571 24.153 8.67215 24.4961C9.05858 24.8392 9.56282 25.0194 10.0792 24.999C10.5955 24.9785 11.0839 24.759 11.442 24.3864C11.8001 24.0138 12.0001 23.517 12 23.0003C12 22.649 11.9069 22.3039 11.7302 22.0003H15C15.0844 21.9999 15.1684 21.9889 15.25 21.9674C15.0857 21.6716 14.9996 21.3387 15 21.0003V19.0003Z" fill="white"/>
<path d="M26.9999 10H23.7301C23.934 10.3502 24.0259 10.7543 23.9936 11.1582C23.9528 11.6734 23.7142 12.1528 23.3278 12.4959C22.9413 12.839 22.4371 13.0192 21.9207 12.9987C21.4043 12.9782 20.9159 12.7587 20.5579 12.3861C20.1998 12.0135 19.9998 11.5168 19.9999 11C19.9999 10.6487 20.093 10.3037 20.2696 10H16.9999C16.7347 10 16.4803 10.1054 16.2928 10.2929C16.1053 10.4804 15.9999 10.7348 15.9999 11V14.2697C15.6498 14.066 15.2457 13.974 14.8419 14.0061C14.3265 14.0466 13.8467 14.285 13.5033 14.6715C13.1598 15.058 12.9794 15.5624 12.9999 16.0791C13.0203 16.5957 13.24 17.0843 13.6129 17.4425C13.9858 17.8006 14.4829 18.0004 14.9999 18C15.3512 18 15.6962 17.9069 15.9999 17.7303V21C15.9999 21.2652 16.1053 21.5196 16.2928 21.7071C16.4803 21.8946 16.7347 22 16.9999 22H20.2696C20.0658 21.6498 19.9739 21.2457 20.0061 20.8417C20.047 20.3266 20.2856 19.8472 20.672 19.5041C21.0585 19.161 21.5627 18.9808 22.0791 19.0013C22.5954 19.0218 23.0838 19.2413 23.4419 19.6139C23.8 19.9865 24 20.4832 23.9999 21C23.9999 21.3513 23.9068 21.6964 23.7301 22H26.9999C27.2651 22 27.5195 21.8946 27.707 21.7071C27.8945 21.5196 27.9999 21.2652 27.9999 21V11C27.9999 10.7348 27.8945 10.4804 27.707 10.2929C27.5195 10.1054 27.2651 10 26.9999 10Z" fill="white"/>
</svg>
