<svg width="32" height="32" viewBox="0 0 32 32" fill="none" xmlns="http://www.w3.org/2000/svg">
<path d="M15.2181 16.7709L11.597 13.1497C11.4253 12.9781 11.4253 12.6998 11.597 12.5281C11.7686 12.3565 12.0469 12.3565 12.2186 12.5281L15.8525 16.1621C15.6229 11.5182 11.7728 7.81076 7.073 7.81076V8.00415C7.073 12.6342 10.6712 16.4393 15.2181 16.7709ZM21.2351 12.0886C21.4068 11.917 21.6851 11.917 21.8567 12.0886C22.0284 12.2602 22.0284 12.5385 21.8567 12.7102L17.7723 16.7946H18.4693C23.3164 16.7946 27.2598 12.8512 27.2598 8.00415V6.46582H25.9412C21.0941 6.46582 17.1507 10.4092 17.1507 15.2563V16.1731L21.2351 12.0886Z" fill="white"/>
<path d="M25.8123 15.881L21.8595 19.834C21.5956 20.5563 20.9392 21.1 20.1131 21.2716L14.8563 22.8049C14.6189 22.8741 14.3701 22.734 14.3077 22.4929C14.2473 22.2599 14.3969 22.0232 14.6279 21.9558L19.8844 20.4226L19.9235 20.4131C20.5934 20.2784 20.9487 19.832 21.0579 19.4588C21.1484 19.1498 21.0887 18.8557 20.8982 18.6721C20.5728 18.3585 19.8989 18.3409 19.0492 18.6239C19.0297 18.6304 19.0098 18.6356 18.9897 18.6394L15.4735 19.2987C15.4032 19.3119 15.3309 19.3077 15.2626 19.2866C15.1943 19.2654 15.1322 19.228 15.0817 19.1775C12.4859 16.5818 9.34831 16.742 6.47325 19.617C6.43244 19.6578 6.38399 19.6902 6.33066 19.7123C6.27734 19.7344 6.22018 19.7458 6.16246 19.7458H4.29458C4.11248 19.7458 3.96484 19.8934 3.96484 20.0755V24.2508C3.96484 24.4329 4.11247 24.5805 4.29458 24.5805H7.04152C7.07671 24.5805 7.112 24.5848 7.14619 24.5932C13.9129 26.2449 18.4539 25.9913 21.0282 23.8174L27.3884 17.4571C27.6657 17.1799 27.7788 16.7822 27.6791 16.3822C27.6566 16.2921 27.6216 16.2056 27.5751 16.1252C27.189 15.4579 26.317 15.3765 25.8123 15.881Z" fill="white"/>
</svg>
