<svg width="32" height="32" viewBox="0 0 32 32" fill="none" xmlns="http://www.w3.org/2000/svg">
<path d="M21.0501 21.05C19.7012 22.3989 17.9076 23.1418 16 23.1418C14.0924 23.1418 12.2988 22.3989 10.9499 21.05C10.763 20.863 10.5866 20.6658 10.4215 20.4594C10.3432 20.3614 10.2256 20.3021 10.1001 20.3021H8.62885C8.27567 20.3021 8.096 20.7262 8.34217 20.9795C8.43778 21.0778 8.53345 21.1761 8.62916 21.2744C8.65643 21.3024 8.67945 21.3342 8.69749 21.3689L10.0206 23.9111C10.0786 24.0224 10.1855 24.1001 10.3093 24.1209L13.1349 24.5951C13.174 24.6017 13.2118 24.614 13.2473 24.6317L15.8111 25.9108C15.9234 25.9669 16.0555 25.9669 16.1679 25.911L18.733 24.6343C18.7683 24.6167 18.8061 24.6044 18.845 24.5979L21.6704 24.1237C21.794 24.1029 21.9006 24.0256 21.9587 23.9146L23.2868 21.3747C23.3048 21.3403 23.3276 21.3089 23.3546 21.2811C23.4101 21.2241 23.5175 21.1137 23.6488 20.9786C23.8947 20.7254 23.7153 20.3021 23.3624 20.3021H21.8998C21.7744 20.3021 21.6567 20.3615 21.5784 20.4595C21.4134 20.6659 21.237 20.863 21.0501 21.05ZM10.9499 10.9498C12.2988 9.6009 14.0924 8.85799 16 8.85799C17.9076 8.85799 19.7012 9.6009 21.0501 10.9498C21.237 11.1368 21.4134 11.334 21.5785 11.5404C21.6568 11.6384 21.7744 11.6977 21.8999 11.6977H23.359C23.712 11.6977 23.8913 11.2741 23.6452 11.021C23.517 10.8891 23.4122 10.7814 23.3575 10.7253C23.3302 10.6973 23.3073 10.6656 23.2893 10.6309L21.9662 8.08874C21.9082 7.97739 21.8013 7.89971 21.6775 7.87893L18.8519 7.40474C18.8128 7.39818 18.775 7.38586 18.7395 7.36818L16.1757 6.08899C16.0634 6.03295 15.9313 6.03289 15.8189 6.08882L13.2538 7.36556C13.2184 7.38315 13.1807 7.39541 13.1417 7.40195L10.3163 7.87615C10.1928 7.89689 10.0861 7.97428 10.0281 8.08528L8.69991 10.6251C8.68194 10.6595 8.65916 10.691 8.63212 10.7188C8.57669 10.7757 8.4692 10.8862 8.33797 11.0213C8.09206 11.2744 8.27143 11.6977 8.62434 11.6977H10.1001C10.2256 11.6977 10.3432 11.6384 10.4216 11.5404C10.5866 11.334 10.763 11.1368 10.9499 10.9498Z" fill="white"/>
<path d="M16 10.1924C14.4488 10.1924 12.9904 10.7965 11.8935 11.8934C9.62922 14.1577 9.62922 17.842 11.8935 20.1064C12.9904 21.2033 14.4488 21.8074 16 21.8074C17.5513 21.8074 19.0096 21.2033 20.1065 20.1064C22.3708 17.842 22.3708 14.1577 20.1065 11.8934C19.0096 10.7965 17.5512 10.1924 16 10.1924ZM15.3756 18.5436C15.2193 18.6998 14.9661 18.6998 14.8099 18.5436L13.0013 16.735C12.8451 16.5787 12.8451 16.3255 13.0013 16.1693L13.4117 15.7588C13.5679 15.6026 13.8212 15.6026 13.9774 15.7589L14.8099 16.5914C14.9661 16.7476 15.2193 16.7476 15.3756 16.5914L18.0227 13.9442C18.1789 13.788 18.4322 13.788 18.5884 13.9442L18.9988 14.3547C19.155 14.5109 19.155 14.7642 18.9988 14.9204L15.3756 18.5436ZM23.1663 13.0321C22.8757 13.0321 22.6807 13.3331 22.777 13.6073C23.3198 15.1525 23.3198 16.8473 22.777 18.3925C22.6807 18.6666 22.8757 18.9677 23.1663 18.9677H27.2397C27.5084 18.9677 27.7007 18.708 27.6223 18.451L26.9105 16.1165C26.8874 16.0405 26.8874 15.9593 26.9105 15.8832L27.6223 13.5488C27.7007 13.2917 27.5084 13.0321 27.2397 13.0321H23.1663ZM9.22308 13.6073C9.31938 13.3331 9.12435 13.0321 8.8338 13.0321H4.75266C4.48626 13.0321 4.2943 13.2876 4.36848 13.5435L5.04836 15.8885C5.06945 15.9613 5.06945 16.0385 5.04836 16.1113L4.36848 18.4563C4.2943 18.7121 4.48626 18.9677 4.75266 18.9677H8.83381C9.12436 18.9677 9.31939 18.6666 9.22309 18.3925C8.68028 16.8473 8.68026 15.1525 9.22308 13.6073Z" fill="white"/>
</svg>
