<svg width="24" height="24" viewBox="0 0 24 24" fill="none" xmlns="http://www.w3.org/2000/svg">
<g clip-path="url(#clip0_2485_4935)">
<path d="M9.5827 0.000976562H4.13231V3.3246L9.5827 2.41621V0.000976562ZM21.5818 22.5929V6.85762H12.7031V22.5929H11.2969V3.55621L2.41819 5.03596V22.5929H0V23.9992H24V22.5929H21.5818ZM18.1098 8.87966H19.6035V10.2859H18.1098V8.87966ZM18.1098 12.308H19.6035V13.7143H18.1098V12.308ZM18.1098 15.7363H19.6035V17.1426H18.1098V15.7363ZM18.1098 19.1646H19.6035V20.5709H18.1098V19.1646ZM14.6815 8.87966H16.1752V10.2859H14.6815V8.87966ZM14.6815 12.308H16.1752V13.7143H14.6815V12.308ZM14.6815 15.7363H16.1752V17.1426H14.6815V15.7363ZM14.6815 19.1646H16.1752V20.5709H14.6815V19.1646ZM7.82484 5.45137H9.31852V6.85762H7.82484V5.45137ZM7.82484 8.87966H9.31852V10.2859H7.82484V8.87966ZM7.82484 12.308H9.31852V13.7143H7.82484V12.308ZM7.82484 15.7363H9.31852V17.1426H7.82484V15.7363ZM4.39655 8.87966H5.89022V10.2859H4.39655V8.87966ZM4.39655 12.308H5.89022V13.7143H4.39655V12.308ZM4.39655 15.7363H5.89022V17.1426H4.39655V15.7363ZM4.44023 19.1646H9.27483V22.5929H7.86858V20.5709H5.84648V22.5929H4.44023V19.1646Z" fill="white"/>
</g>
<defs>
<clipPath id="clip0_2485_4935">
<rect width="24" height="24" fill="white"/>
</clipPath>
</defs>
</svg>
