<svg width="24" height="24" viewBox="0 0 24 24" fill="none" xmlns="http://www.w3.org/2000/svg">
<path d="M7.36041 13.0207L8.39145 13.644C8.55945 13.644 8.65521 13.572 8.65521 13.4283C8.63121 13.2843 8.60721 13.1645 8.53521 13.0447L6.28161 8.82506L1.29489 8.94506C1.12689 8.92106 0.959129 9.06506 0.959129 9.23282V9.30482C0.959129 9.35282 1.03113 9.42458 1.17513 9.52034L2.18193 10.1199L1.05513 11.8219C0.791369 12.1817 0.647609 12.5892 0.599609 13.0207C0.623609 13.3565 0.719609 13.692 0.911369 13.9798L4.31577 19.9015C4.24377 19.5418 4.19577 19.2063 4.19577 18.8465C4.19577 18.1992 4.41177 17.5999 4.77129 17.0724L7.36041 13.0207ZM8.65521 9.56834L11.4601 5.22914C10.4053 2.85554 9.30249 1.65674 8.12769 1.65674C7.40841 1.65674 6.95289 1.8485 6.68913 2.25602L4.05201 6.4757L8.65521 9.56834Z" fill="white"/>
<path d="M6.37745 21.316H11.7715V15.7055H6.56921C6.13909 16.3005 5.73899 16.9167 5.37041 17.5516C5.10665 18.0311 4.98689 18.5826 4.96289 19.1339C4.96289 20.5725 5.41841 21.3155 6.37745 21.3155V21.316ZM17.5017 8.53745L19.9233 4.50953C19.9951 4.36577 20.043 4.22201 20.043 4.07801C20.043 3.88625 19.971 3.81425 19.851 3.81425C19.779 3.86225 19.6833 3.88625 19.6115 3.91025L18.5085 4.36577L17.5017 2.39993C17.0702 1.51265 16.1831 1.05713 14.8406 1.05713H8.55905C9.11057 1.20113 9.63785 1.41689 10.1174 1.75241C10.7647 2.25593 11.4122 3.21497 12.0835 4.60553L13.33 7.19489L12.419 7.62641C12.323 7.67441 12.275 7.77017 12.275 7.86617C12.275 8.00993 12.371 8.10593 12.563 8.12969L17.5017 8.53745ZM19.8991 20.4767L23.3995 14.1234C22.9439 14.675 22.3687 15.0825 21.7211 15.3222C21.0499 15.5142 20.3306 15.586 19.6355 15.562H15.7276V14.7467C15.7276 14.4352 15.6556 14.2675 15.4876 14.2675C15.3918 14.2675 15.2961 14.3154 15.2481 14.3872L12.8265 18.6546L15.3681 22.5866C15.5596 22.8743 15.7276 22.9941 15.8714 22.9223C16.0154 22.8743 16.0874 22.8023 16.0874 22.7063V21.3638H18.245C18.5779 21.3995 18.9139 21.3339 19.209 21.1756C19.5041 21.0174 19.7446 20.7738 19.8991 20.4767Z" fill="white"/>
<path d="M18.3885 14.7468H20.7141C21.3614 14.7228 21.9847 14.4593 22.4402 14.0038C23.0875 13.5002 23.3993 12.9487 23.3993 12.3974C23.3993 12.1097 23.3033 11.8459 23.1355 11.6302L20.3784 7.38672L15.6074 10.1678L18.3885 14.7468Z" fill="white"/>
</svg>
