<svg width="24" height="24" viewBox="0 0 24 24" fill="none" xmlns="http://www.w3.org/2000/svg">
<path d="M9.5 22C9.5 22.3978 9.65804 22.7794 9.93934 23.0607C10.2206 23.342 10.6022 23.5 11 23.5H13C13.3978 23.5 13.7794 23.342 14.0607 23.0607C14.342 22.7794 14.5 22.3978 14.5 22H9.5ZM8.5 19.5H15.5V20C15.5 20.55 15.05 21 14.5 21H9.5C8.95 21 8.5 20.55 8.5 20V19.5ZM12 3.5C8.14 3.5 5 6.64 5 10.5C5 13.151 6.1525 14.828 7.1195 15.7685C7.901 16.529 8.374 17.486 8.4775 18.5H15.522C15.6255 17.486 16.0985 16.529 16.88 15.7685C17.847 14.828 18.9995 13.151 18.9995 10.5C18.9995 6.64 15.86 3.5 12 3.5ZM14.6925 11.1335L11.2545 15.8965C11.0945 16.1185 10.7455 15.9585 10.8085 15.6925L11.6325 12.2195H9.6805C9.58975 12.2195 9.50072 12.1947 9.42297 12.1479C9.34521 12.1011 9.28165 12.0341 9.2391 11.9539C9.19655 11.8738 9.17663 11.7835 9.18145 11.6929C9.18628 11.6023 9.21568 11.5147 9.2665 11.4395L12.535 6.609C12.686 6.386 13.0345 6.5265 12.9885 6.792L12.371 10.3405H14.2875C14.3796 10.3405 14.4698 10.3659 14.5484 10.414C14.6269 10.462 14.6907 10.5308 14.7326 10.6127C14.7745 10.6947 14.793 10.7867 14.786 10.8784C14.7791 10.9702 14.7469 11.0583 14.693 11.133L14.6925 11.1335ZM12 2.5C11.8674 2.5 11.7402 2.44732 11.6464 2.35355C11.5527 2.25979 11.5 2.13261 11.5 2V1C11.5 0.867392 11.5527 0.740215 11.6464 0.646447C11.7402 0.552678 11.8674 0.5 12 0.5C12.1326 0.5 12.2598 0.552678 12.3536 0.646447C12.4473 0.740215 12.5 0.867392 12.5 1V2C12.5 2.13261 12.4473 2.25979 12.3536 2.35355C12.2598 2.44732 12.1326 2.5 12 2.5ZM17.657 4.843C17.5633 4.74924 17.5106 4.62208 17.5106 4.4895C17.5106 4.35692 17.5633 4.22976 17.657 4.136L18.364 3.429C18.4583 3.33792 18.5846 3.28752 18.7157 3.28866C18.8468 3.2898 18.9722 3.34239 19.0649 3.43509C19.1576 3.52779 19.2102 3.6532 19.2113 3.7843C19.2125 3.9154 19.1621 4.0417 19.071 4.136L18.364 4.843C18.2702 4.93674 18.1431 4.98939 18.0105 4.98939C17.8779 4.98939 17.7508 4.93674 17.657 4.843ZM6.343 4.843C6.43674 4.74924 6.48939 4.62208 6.48939 4.4895C6.48939 4.35692 6.43674 4.22976 6.343 4.136L5.636 3.429C5.5417 3.33792 5.4154 3.28752 5.2843 3.28866C5.1532 3.2898 5.02779 3.34239 4.93509 3.43509C4.84239 3.52779 4.7898 3.6532 4.78866 3.7843C4.78752 3.9154 4.83792 4.0417 4.929 4.136L5.636 4.843C5.72976 4.93674 5.85692 4.98939 5.9895 4.98939C6.12208 4.98939 6.24924 4.93674 6.343 4.843ZM17.657 16.1565C17.5633 16.2503 17.5106 16.3774 17.5106 16.51C17.5106 16.6426 17.5633 16.7697 17.657 16.8635L18.364 17.5705C18.4583 17.6616 18.5846 17.712 18.7157 17.7108C18.8468 17.7097 18.9722 17.6571 19.0649 17.5644C19.1576 17.4717 19.2102 17.3463 19.2113 17.2152C19.2125 17.0841 19.1621 16.9578 19.071 16.8635L18.364 16.1565C18.2702 16.0628 18.1431 16.0101 18.0105 16.0101C17.8779 16.0101 17.7508 16.0628 17.657 16.1565ZM6.343 16.1565C6.43674 16.2503 6.48939 16.3774 6.48939 16.51C6.48939 16.6426 6.43674 16.7697 6.343 16.8635L5.636 17.5705C5.5417 17.6616 5.4154 17.712 5.2843 17.7108C5.1532 17.7097 5.02779 17.6571 4.93509 17.5644C4.84239 17.4717 4.7898 17.3463 4.78866 17.2152C4.78752 17.0841 4.83792 16.9578 4.929 16.8635L5.636 16.1565C5.72976 16.0628 5.85692 16.0101 5.9895 16.0101C6.12208 16.0101 6.24924 16.0628 6.343 16.1565ZM21.5 11H20.5C20.3674 11 20.2402 10.9473 20.1464 10.8536C20.0527 10.7598 20 10.6326 20 10.5C20 10.3674 20.0527 10.2402 20.1464 10.1464C20.2402 10.0527 20.3674 10 20.5 10H21.5C21.6326 10 21.7598 10.0527 21.8536 10.1464C21.9473 10.2402 22 10.3674 22 10.5C22 10.6326 21.9473 10.7598 21.8536 10.8536C21.7598 10.9473 21.6326 11 21.5 11ZM3.5 11H2.5C2.36739 11 2.24021 10.9473 2.14645 10.8536C2.05268 10.7598 2 10.6326 2 10.5C2 10.3674 2.05268 10.2402 2.14645 10.1464C2.24021 10.0527 2.36739 10 2.5 10H3.5C3.63261 10 3.75979 10.0527 3.85355 10.1464C3.94732 10.2402 4 10.3674 4 10.5C4 10.6326 3.94732 10.7598 3.85355 10.8536C3.75979 10.9473 3.63261 11 3.5 11Z" fill="white"/>
</svg>
