<svg width="24" height="24" viewBox="0 0 24 24" fill="none" xmlns="http://www.w3.org/2000/svg">
<mask id="mask0_2485_6407" style="mask-type:luminance" maskUnits="userSpaceOnUse" x="4" y="4" width="16" height="16">
<path d="M19.5 4.5V19.5H4.5V4.5H19.5Z" fill="white" stroke="black"/>
</mask>
<g mask="url(#mask0_2485_6407)">
<path d="M15.0952 9.90357L10.9023 14.0965L8.90625 12.1005" stroke="black" stroke-miterlimit="10" stroke-linecap="round" stroke-linejoin="round"/>
</g>
<mask id="mask1_2485_6407" style="mask-type:luminance" maskUnits="userSpaceOnUse" x="4" y="4" width="16" height="16">
<path d="M19.5 19.5V4.5H4.5V19.5H19.5Z" fill="white" stroke="white"/>
</mask>
<g mask="url(#mask1_2485_6407)">
</g>
<mask id="mask2_2485_6407" style="mask-type:luminance" maskUnits="userSpaceOnUse" x="4" y="4" width="16" height="16">
<path d="M19.5 19.5V4.5H4.5V19.5H19.5Z" fill="white" stroke="white"/>
</mask>
<g mask="url(#mask2_2485_6407)">
<path d="M19.375 12C19.375 16.0731 16.0731 19.375 12 19.375C7.9269 19.375 4.625 16.0731 4.625 12C4.625 7.92694 7.9269 4.62504 12 4.62504C16.0731 4.62504 19.375 7.92694 19.375 12Z" stroke="black" stroke-miterlimit="10" stroke-linecap="round" stroke-linejoin="round"/>
</g>
</svg>
