<svg width="40" height="40" viewBox="0 0 40 40" fill="none" xmlns="http://www.w3.org/2000/svg">
<g clip-path="url(#clip0_2485_6810)">
<path fill-rule="evenodd" clip-rule="evenodd" d="M18.8426 6.15922V10.6315L18.2747 10.7C16.0431 10.9744 13.9674 11.9871 12.3777 13.577C10.7879 15.167 9.77544 17.2428 9.50126 19.4744L9.4329 20.0423H4.96024L5.02548 19.3377C5.66767 12.4029 11.2035 6.86719 18.1379 6.22445L18.8426 6.15922ZM29.117 9.79602L25.9513 12.9623L25.5038 12.6276C24.1 11.576 22.4447 10.9113 20.7035 10.7L20.1359 10.6313V6.15922L20.8405 6.22445C23.6623 6.48648 26.3449 7.57185 28.555 9.3457L29.1175 9.79602H29.117ZM34.0177 20.0423L33.9526 19.3377C33.6733 16.3382 32.465 13.5006 30.4962 11.2205L30.0424 10.6936L26.8873 13.8516L27.2594 14.3034C28.4777 15.7797 29.2473 17.5742 29.477 19.4744L29.5454 20.0423H34.0177ZM20.1355 35.2153V30.7435L20.7033 30.6749C22.9346 30.3999 25.0101 29.387 26.5997 27.7972C28.1894 26.2074 29.2021 24.1319 29.477 21.9005L29.5453 21.3326H34.0181L33.9529 22.0372C33.3107 28.9718 27.7749 34.5077 20.8404 35.1501L20.1358 35.2153H20.1355ZM18.0261 22.4351C17.9413 22.4342 17.8576 22.4166 17.7797 22.3831C17.7018 22.3497 17.6313 22.3011 17.5724 22.2402C17.5134 22.1793 17.4671 22.1073 17.4361 22.0284C17.4052 21.9495 17.3902 21.8652 17.392 21.7805L17.4413 18.314C17.4422 18.2291 17.4599 18.1453 17.4933 18.0673C17.5268 17.9893 17.5753 17.9187 17.6361 17.8595C17.6969 17.8003 17.7687 17.7536 17.8476 17.7223C17.9264 17.6909 18.0107 17.6754 18.0956 17.6767C18.1804 17.678 18.2642 17.696 18.342 17.7297C18.4199 17.7635 18.4903 17.8122 18.5493 17.8732C18.6083 17.9343 18.6546 18.0063 18.6857 18.0853C18.7168 18.1643 18.7319 18.2486 18.7303 18.3334L18.7056 20.2068L25.0499 13.8645L24.4041 13.4263C22.5746 12.1844 20.3444 11.6774 18.1578 12.0063C15.9713 12.3352 13.9889 13.4759 12.6057 15.201C11.2225 16.9261 10.54 19.109 10.6942 21.3148C10.8485 23.5206 11.8281 25.5873 13.4379 27.1031C15.0478 28.619 17.1696 29.4726 19.3807 29.494C21.5917 29.5154 23.7297 28.703 25.3686 27.2186C27.0075 25.7343 28.0269 23.6869 28.2238 21.4845C28.4207 19.2821 27.7806 17.0864 26.4311 15.3348L25.9827 14.7545L19.617 21.1216L21.4899 21.0945H21.5041C21.6741 21.0954 21.8369 21.1634 21.957 21.2836C22.0772 21.4039 22.145 21.5667 22.1458 21.7367C22.1465 21.9067 22.0802 22.0701 21.9611 22.1914C21.8421 22.3128 21.68 22.3822 21.51 22.3847L18.026 22.4349L18.0261 22.4351ZM4.96024 21.3326H9.43306L9.50142 21.9005C9.7756 24.1321 10.7881 26.208 12.3778 27.7979C13.9676 29.3878 16.0433 30.4005 18.2749 30.6749L18.8427 30.7434V35.2153L18.1381 35.1501C11.2035 34.5078 5.66767 28.9718 5.02548 22.0372L4.96024 21.3326ZM38.1545 20.0423H35.3067C35.3152 20.2564 35.3195 20.4714 35.3196 20.6875C35.3197 20.9036 35.3154 21.1186 35.3067 21.3326H38.1545C38.2398 21.3335 38.3245 21.3175 38.4036 21.2855C38.4827 21.2535 38.5546 21.2062 38.6153 21.1462C38.676 21.0862 38.7241 21.0147 38.757 20.936C38.7899 20.8573 38.8068 20.7728 38.8068 20.6875C38.8068 20.6021 38.7899 20.5177 38.757 20.4389C38.7241 20.3602 38.676 20.2888 38.6153 20.2288C38.5546 20.1688 38.4827 20.1214 38.4036 20.0894C38.3245 20.0574 38.2398 20.0414 38.1545 20.0423ZM20.1355 4.84797V2.01984C20.1336 1.84963 20.0647 1.68702 19.9436 1.56731C19.8226 1.44761 19.6593 1.38047 19.489 1.38047C19.3188 1.38047 19.1554 1.44761 19.0344 1.56731C18.9134 1.68702 18.8445 1.84963 18.8426 2.01984V4.84617C19.0495 4.8382 19.2574 4.83419 19.4663 4.83414C19.6902 4.83414 19.9133 4.83875 20.1355 4.84797ZM3.62579 20.0423H0.819697C0.649831 20.0442 0.487557 20.113 0.368099 20.2338C0.248641 20.3546 0.181641 20.5176 0.181641 20.6875C0.181641 20.8573 0.248641 21.0204 0.368099 21.1411C0.487557 21.2619 0.649831 21.3307 0.819697 21.3326H3.62579C3.6172 21.1186 3.6129 20.9035 3.6129 20.6875C3.6129 20.4715 3.6172 20.2564 3.62579 20.0423ZM18.8426 36.5287V39.3551C18.8445 39.5253 18.9134 39.6879 19.0344 39.8076C19.1554 39.9273 19.3188 39.9945 19.489 39.9945C19.6593 39.9945 19.8226 39.9273 19.9436 39.8076C20.0647 39.6879 20.1336 39.5253 20.1355 39.3551V36.527C19.9135 36.5362 19.6905 36.5408 19.4663 36.5408C19.2574 36.5408 19.0495 36.5368 18.8426 36.5287ZM30.9645 9.77344L34.0277 6.71094L39.1906 6.63594C39.3611 6.6326 39.5234 6.56186 39.642 6.43917C39.7605 6.31648 39.8256 6.15184 39.8231 5.98126C39.8206 5.81067 39.7506 5.64804 39.6285 5.52892C39.5063 5.4098 39.342 5.3439 39.1714 5.34563L34.4089 5.41469L34.4792 0.654063C34.4807 0.569593 34.4656 0.485655 34.4346 0.40705C34.4037 0.328445 34.3575 0.256716 34.2988 0.195966C34.2401 0.135217 34.17 0.0866398 34.0925 0.0530138C34.015 0.0193878 33.9316 0.00137299 33.8471 1.01376e-08H33.8328C33.6635 -3.00373e-05 33.5011 0.0667353 33.3807 0.185793C33.2604 0.30485 33.1919 0.466583 33.1901 0.635859L33.1143 5.79875L30.0386 8.87398C30.3593 9.16112 30.668 9.46094 30.9645 9.77344Z" fill="black"/>
</g>
<defs>
<clipPath id="clip0_2485_6810">
<rect width="40" height="40" fill="white"/>
</clipPath>
</defs>
</svg>
