<svg width="40" height="40" viewBox="0 0 40 40" fill="none" xmlns="http://www.w3.org/2000/svg">
<path fill-rule="evenodd" clip-rule="evenodd" d="M6.09906 7.76738C5.76794 5.93706 5.81866 4.80994 6.4637 4.21346C6.46597 4.21136 6.46811 4.20912 6.4701 4.20674C6.6833 3.95045 6.9684 3.76391 7.28862 3.67118C7.60884 3.57845 7.9495 3.58379 8.26666 3.6865C9.68266 4.14522 9.82362 6.09418 8.51018 6.75978C8.4973 6.76613 8.48667 6.77628 8.47973 6.78885C8.4728 6.80142 8.46988 6.81582 8.47138 6.8301L8.5093 7.22314C8.51099 7.23965 8.50682 7.25624 8.49752 7.26998C8.48822 7.28373 8.47438 7.29377 8.45842 7.29834C7.63074 7.54042 7.01338 7.58426 6.1889 7.82314C6.17934 7.82606 6.16926 7.82688 6.15936 7.82552C6.14945 7.82417 6.13996 7.82068 6.13154 7.8153C6.12299 7.81012 6.11567 7.80316 6.11006 7.79489C6.10446 7.78662 6.1007 7.77724 6.09906 7.76738ZM33.6408 7.86082C33.9719 6.0305 33.9211 4.90338 33.2762 4.3069C33.2739 4.3048 33.2718 4.30256 33.2698 4.30018C33.0566 4.04389 32.7715 3.85735 32.4513 3.76462C32.131 3.67189 31.7904 3.67723 31.4732 3.77994C30.0572 4.23866 29.9163 6.18762 31.2297 6.85322C31.2563 6.86674 31.2713 6.89378 31.2684 6.92354L31.2305 7.31658C31.2288 7.33309 31.233 7.34968 31.2423 7.36342C31.2516 7.37717 31.2654 7.38721 31.2814 7.39178C32.1091 7.63386 32.7264 7.6777 33.5509 7.91658C33.5605 7.9195 33.5705 7.92032 33.5804 7.91896C33.5903 7.91761 33.5998 7.91412 33.6083 7.90874C33.6168 7.90358 33.6242 7.89662 33.6298 7.88835C33.6354 7.88008 33.6392 7.87069 33.6408 7.86082ZM5.56586 36.2677L19.0465 25.516C19.059 25.5059 19.0746 25.5004 19.0906 25.5003C19.1067 25.5002 19.1223 25.5057 19.1349 25.5157L22.5934 28.2332C22.6068 28.2438 22.6235 28.2493 22.6406 28.2485C22.6576 28.2477 22.6738 28.2408 22.6862 28.229L29.8559 21.4638C29.8695 21.4508 29.8775 21.433 29.8781 21.4142C29.8787 21.3954 29.8718 21.3771 29.859 21.3633L28.9551 20.3988C28.9464 20.3898 28.9403 20.3786 28.9374 20.3664C28.9346 20.3542 28.9351 20.3415 28.9389 20.3295C28.9424 20.3175 28.949 20.3066 28.9582 20.298C28.9673 20.2895 28.9786 20.2835 28.9908 20.2808L34.3733 19.0239C34.3855 19.0209 34.3982 19.0213 34.4102 19.0249C34.4222 19.0285 34.433 19.0353 34.4415 19.0446C34.4501 19.0536 34.4562 19.0648 34.4591 19.077C34.4619 19.0892 34.4614 19.102 34.4576 19.1139L32.8548 24.4037C32.8514 24.4157 32.8447 24.4266 32.8356 24.4352C32.8264 24.4438 32.8151 24.4497 32.8029 24.4524C32.7907 24.4554 32.778 24.4551 32.766 24.4515C32.754 24.4478 32.7432 24.441 32.7347 24.4318L31.8557 23.4939C31.8429 23.4802 31.8252 23.4722 31.8065 23.4715C31.7879 23.4707 31.7696 23.4774 31.7558 23.4899L22.5679 31.8775C22.5555 31.8889 22.5394 31.8956 22.5226 31.8962C22.5057 31.8968 22.4892 31.8914 22.4759 31.8809L19.1402 29.2599C19.1294 29.2512 19.1163 29.2459 19.1025 29.2447C19.0888 29.2434 19.0749 29.2463 19.0628 29.253L5.64362 36.3863C5.62794 36.3946 5.60973 36.3967 5.59255 36.3923C5.57537 36.3879 5.56045 36.3772 5.55073 36.3624C5.541 36.3476 5.53716 36.3296 5.53995 36.3121C5.54275 36.2946 5.55199 36.2788 5.56586 36.2677ZM22.4014 26.7029C22.405 26.7199 22.4134 26.7332 22.427 26.7439L22.5297 26.8247C22.5431 26.8353 22.5598 26.8407 22.5769 26.8399C22.5939 26.8392 22.6101 26.8323 22.6225 26.8205L26.0433 23.5927C26.0505 23.5861 26.0562 23.5781 26.06 23.5691C26.0639 23.5601 26.0658 23.5505 26.0656 23.5407C26.0636 22.4052 26.1107 21.2701 26.2068 20.1387L30.7265 15.9667C30.8842 15.8211 30.9934 15.6687 31.0805 15.4727L33.8762 9.18242L30.2241 8.08682L27.5331 12.7962C27.3763 13.0707 27.1687 13.2647 26.8844 13.4027L21.8156 15.8631C21.8044 15.8683 21.7948 15.8764 21.7878 15.8866C21.7808 15.8968 21.7766 15.9087 21.7757 15.9211C21.4562 19.6724 21.6649 23.2664 22.4014 26.7029ZM17.4623 25.3903C17.9887 22.354 18.1127 19.1975 17.8335 15.921C17.8327 15.9086 17.8285 15.8967 17.8215 15.8865C17.8145 15.8763 17.8049 15.8682 17.7936 15.863L12.7249 13.4026C12.4405 13.2646 12.2331 13.0706 12.0763 12.7961L9.38514 8.08674L5.73306 9.18234L8.52874 15.4727C8.61594 15.6687 8.72514 15.8211 8.88282 15.9666L13.4025 20.1386C13.6485 23.0508 13.5732 25.8959 13.1769 28.6738C13.1747 28.6879 13.1769 28.7024 13.1832 28.7152C13.1895 28.728 13.1995 28.7387 13.212 28.7456C13.2243 28.7529 13.2386 28.7561 13.2528 28.755C13.2671 28.7539 13.2806 28.7485 13.2917 28.7395L17.4364 25.4338C17.4503 25.4231 17.4595 25.4076 17.4623 25.3903ZM19.8559 9.10242C21.6047 9.10242 23.0224 10.5202 23.0224 12.269C23.0224 14.0179 21.6047 15.4355 19.8559 15.4355C18.1071 15.4355 16.6893 14.0178 16.6893 12.269C16.6893 10.5202 18.1071 9.10242 19.8559 9.10242Z" fill="black"/>
</svg>
