<svg width="40" height="40" viewBox="0 0 40 40" fill="none" xmlns="http://www.w3.org/2000/svg">
<path d="M14.375 9.375C14.2092 9.375 14.0503 9.30915 13.9331 9.19194C13.8158 9.07473 13.75 8.91576 13.75 8.75C13.75 8.58424 13.8158 8.42527 13.9331 8.30806C14.0503 8.19085 14.2092 8.125 14.375 8.125H15C14.7037 5.18 12.32 2.79625 9.375 2.5V3.125C9.375 3.29076 9.30915 3.44973 9.19194 3.56694C9.07473 3.68415 8.91576 3.75 8.75 3.75C8.58424 3.75 8.42527 3.68415 8.30806 3.56694C8.19085 3.44973 8.125 3.29076 8.125 3.125V2.5C5.18 2.79625 2.79625 5.18 2.5 8.125H3.125C3.29076 8.125 3.44973 8.19085 3.56694 8.30806C3.68415 8.42527 3.75 8.58424 3.75 8.75C3.75 8.91576 3.68415 9.07473 3.56694 9.19194C3.44973 9.30915 3.29076 9.375 3.125 9.375H2.5C2.79625 12.32 5.18 14.7037 8.125 15V14.375C8.125 14.2092 8.19085 14.0503 8.30806 13.9331C8.42527 13.8158 8.58424 13.75 8.75 13.75C8.91576 13.75 9.07473 13.8158 9.19194 13.9331C9.30915 14.0503 9.375 14.2092 9.375 14.375V15C12.32 14.7037 14.7037 12.32 15 9.375H14.375ZM11.6925 6.6925L9.1925 9.1925C9.13435 9.2505 9.06534 9.29647 8.98941 9.32779C8.91349 9.3591 8.83213 9.37515 8.75 9.375H6.25C6.08424 9.375 5.92527 9.30915 5.80806 9.19194C5.69085 9.07473 5.625 8.91576 5.625 8.75C5.625 8.58424 5.69085 8.42527 5.80806 8.30806C5.92527 8.19085 6.08424 8.125 6.25 8.125H8.49125L10.8075 5.8075C10.8656 5.74939 10.9346 5.70329 11.0105 5.67185C11.0864 5.6404 11.1678 5.62421 11.25 5.62421C11.3322 5.62421 11.4136 5.6404 11.4895 5.67185C11.5654 5.70329 11.6344 5.74939 11.6925 5.8075C11.7506 5.86561 11.7967 5.9346 11.8282 6.01052C11.8596 6.08644 11.8758 6.16782 11.8758 6.25C11.8758 6.33218 11.8596 6.41356 11.8282 6.48948C11.7967 6.5654 11.7506 6.63439 11.6925 6.6925ZM31.25 2.5C27.8037 2.5 25 5.30375 25 8.75C25 12.1962 27.8037 15 31.25 15C34.6963 15 37.5 12.1962 37.5 8.75C37.5 5.30375 34.6963 2.5 31.25 2.5ZM35.4425 6.6925L30.4425 11.6925C30.3846 11.751 30.3157 11.7974 30.2397 11.8291C30.1638 11.8608 30.0823 11.8772 30 11.8772C29.9177 11.8772 29.8362 11.8608 29.7603 11.8291C29.6843 11.7974 29.6154 11.751 29.5575 11.6925L27.0575 9.1925C26.9994 9.13439 26.9533 9.0654 26.9218 8.98948C26.8904 8.91356 26.8742 8.83218 26.8742 8.75C26.8742 8.66782 26.8904 8.58644 26.9218 8.51052C26.9533 8.4346 26.9994 8.36561 27.0575 8.3075C27.1156 8.24939 27.1846 8.20329 27.2605 8.17185C27.3364 8.1404 27.4178 8.12421 27.5 8.12421C27.5822 8.12421 27.6636 8.1404 27.7395 8.17185C27.8154 8.20329 27.8844 8.24939 27.9425 8.3075L30 10.3663L34.5575 5.8075C34.6156 5.74939 34.6846 5.70329 34.7605 5.67185C34.8364 5.6404 34.9178 5.62421 35 5.62421C35.0822 5.62421 35.1636 5.6404 35.2395 5.67185C35.3154 5.70329 35.3844 5.74939 35.4425 5.8075C35.5006 5.86561 35.5467 5.9346 35.5782 6.01052C35.6096 6.08644 35.6258 6.16782 35.6258 6.25C35.6258 6.33218 35.6096 6.41356 35.5782 6.48948C35.5467 6.5654 35.5006 6.63439 35.4425 6.6925ZM32.0263 23.6313L28.4437 22.7362C28.2472 21.9985 27.9543 21.2899 27.5725 20.6287L29.4725 17.4637C29.5441 17.3441 29.5737 17.2039 29.5565 17.0655C29.5393 16.9271 29.4763 16.7985 29.3775 16.7L28.3 15.6225C28.2015 15.5242 28.073 15.4616 27.9349 15.4446C27.7967 15.4277 27.6569 15.4573 27.5375 15.5288L24.3713 17.4288C23.7101 17.0466 23.0015 16.7532 22.2638 16.5562L21.3687 12.9737C21.335 12.8385 21.257 12.7184 21.1472 12.6325C21.0373 12.5467 20.9019 12.5 20.7625 12.5H19.2375C19.0981 12.5 18.9627 12.5467 18.8528 12.6325C18.743 12.7184 18.665 12.8385 18.6313 12.9737L17.7362 16.5562C16.9985 16.7528 16.2899 17.0457 15.6287 17.4275L12.4637 15.5275C12.3441 15.4559 12.2039 15.4263 12.0655 15.4435C11.9271 15.4607 11.7985 15.5237 11.7 15.6225L10.6225 16.7C10.5242 16.7985 10.4616 16.927 10.4446 17.0651C10.4277 17.2033 10.4573 17.3431 10.5288 17.4625L12.4288 20.6287C12.0466 21.2899 11.7532 21.9985 11.5562 22.7362L7.97375 23.6313C7.83848 23.665 7.71837 23.743 7.63253 23.8528C7.54669 23.9627 7.50004 24.0981 7.5 24.2375V25.7625C7.50004 25.9019 7.54669 26.0373 7.63253 26.1472C7.71837 26.257 7.83848 26.335 7.97375 26.3687L11.5562 27.2638C11.7528 28.0015 12.0457 28.7101 12.4275 29.3713L10.5275 32.5362C10.4559 32.6559 10.4263 32.7961 10.4435 32.9345C10.4607 33.0729 10.5237 33.2015 10.6225 33.3L11.7 34.3775C11.7985 34.4758 11.927 34.5384 12.0651 34.5554C12.2033 34.5723 12.3431 34.5427 12.4625 34.4712L15.6287 32.5712C16.2899 32.9534 16.9985 33.2468 17.7362 33.4437L18.6313 37.0262C18.665 37.1615 18.743 37.2816 18.8528 37.3675C18.9627 37.4533 19.0981 37.5 19.2375 37.5H20.7625C20.9019 37.5 21.0373 37.4533 21.1472 37.3675C21.257 37.2816 21.335 37.1615 21.3687 37.0262L22.2638 33.4437C23.0015 33.2472 23.7101 32.9543 24.3713 32.5725L27.5362 34.4725C27.6559 34.5441 27.7961 34.5737 27.9345 34.5565C28.0729 34.5393 28.2015 34.4763 28.3 34.3775L29.3775 33.3C29.4758 33.2015 29.5384 33.073 29.5554 32.9349C29.5723 32.7967 29.5427 32.6569 29.4712 32.5375L27.5712 29.3713C27.9534 28.7101 28.2468 28.0015 28.4437 27.2638L32.0263 26.3687C32.1615 26.335 32.2816 26.257 32.3675 26.1472C32.4533 26.0373 32.5 25.9019 32.5 25.7625V24.2375C32.5 24.0981 32.4533 23.9627 32.3675 23.8528C32.2816 23.743 32.1615 23.665 32.0263 23.6313ZM20 30C18.6739 30 17.4021 29.4732 16.4645 28.5355C15.5268 27.5979 15 26.3261 15 25C15 23.6739 15.5268 22.4021 16.4645 21.4645C17.4021 20.5268 18.6739 20 20 20C21.3261 20 22.5979 20.5268 23.5355 21.4645C24.4732 22.4021 25 23.6739 25 25C25 26.3261 24.4732 27.5979 23.5355 28.5355C22.5979 29.4732 21.3261 30 20 30Z" fill="black"/>
<path d="M20 28.75C22.0711 28.75 23.75 27.0711 23.75 25C23.75 22.9289 22.0711 21.25 20 21.25C17.9289 21.25 16.25 22.9289 16.25 25C16.25 27.0711 17.9289 28.75 20 28.75Z" fill="black"/>
</svg>
