<svg width="40" height="40" viewBox="0 0 40 40" fill="none" xmlns="http://www.w3.org/2000/svg">
<g clip-path="url(#clip0_2485_6791)">
<path d="M20.0005 9.09086C22.5109 9.09086 24.5459 7.0558 24.5459 4.54543C24.5459 2.03506 22.5109 0 20.0005 0C17.4901 0 15.4551 2.03506 15.4551 4.54543C15.4551 7.0558 17.4901 9.09086 20.0005 9.09086Z" fill="black"/>
<path d="M13.7661 18.1818H26.2342C27.3084 18.1818 28.182 17.239 28.182 16.0795V15.4972C28.182 13.9782 27.43 12.5906 26.2182 11.8759C24.7667 11.02 22.51 10 20.0002 10C17.4904 10 15.2337 11.0201 13.7822 11.8759C12.5703 12.5905 11.8184 13.9782 11.8184 15.4972V16.0795C11.8184 17.239 12.6919 18.1818 13.7661 18.1818Z" fill="black"/>
<path d="M8.18215 30.9091C10.6925 30.9091 12.7276 28.874 12.7276 26.3637C12.7276 23.8533 10.6925 21.8182 8.18215 21.8182C5.67178 21.8182 3.63672 23.8533 3.63672 26.3637C3.63672 28.874 5.67178 30.9091 8.18215 30.9091Z" fill="black"/>
<path d="M14.3998 33.6941C12.9483 32.8382 10.6916 31.8182 8.18182 31.8182C5.67205 31.8182 3.41531 32.8383 1.96381 33.6941C0.751961 34.4087 0 35.7963 0 37.3153V37.8977C0 39.0571 0.87358 40 1.94779 40H14.4159C15.4901 40 16.3636 39.0571 16.3636 37.8977V37.3153C16.3636 35.7963 15.6117 34.4087 14.3998 33.6941Z" fill="black"/>
<path d="M31.8189 30.9091C34.3292 30.9091 36.3643 28.874 36.3643 26.3637C36.3643 23.8533 34.3292 21.8182 31.8189 21.8182C29.3085 21.8182 27.2734 23.8533 27.2734 26.3637C27.2734 28.874 29.3085 30.9091 31.8189 30.9091Z" fill="black"/>
<path d="M38.0358 33.6941C36.5843 32.8382 34.3276 31.8182 31.8178 31.8182C29.308 31.8182 27.0513 32.8383 25.5998 33.6941C24.3879 34.4087 23.636 35.7964 23.636 37.3154V37.8977C23.636 39.0572 24.5095 40 25.5837 40H38.0518C39.126 40 39.9996 39.0572 39.9996 37.8977V37.3154C39.9995 35.7963 39.2476 34.4087 38.0358 33.6941ZM24.5441 30.9091C24.8113 30.9091 25.075 30.7919 25.2553 30.5682C25.5687 30.1758 25.5047 29.604 25.1132 29.2898L20.9087 25.9262V20.9091C20.9087 20.4066 20.5021 20 19.9996 20C19.4971 20 19.0904 20.4065 19.0904 20.909V25.9268L14.8859 29.2897C14.4944 29.604 14.4305 30.1757 14.7439 30.5681C14.9241 30.7918 15.1877 30.909 15.455 30.909C15.6538 30.909 15.8545 30.8442 16.0223 30.7102L19.9996 27.5284L23.9768 30.7102C24.1378 30.8391 24.3379 30.9093 24.5441 30.9091Z" fill="black"/>
</g>
<defs>
<clipPath id="clip0_2485_6791">
<rect width="40" height="40" fill="white"/>
</clipPath>
</defs>
</svg>
