<svg width="627" height="259" viewBox="0 0 627 259" fill="none" xmlns="http://www.w3.org/2000/svg">
<g filter="url(#filter0_d_2485_7728)">
<path d="M0.000793457 204.141V163.738L101.58 3.27148H136.585V59.541H115.811L51.6902 160.957V162.92H196.453V204.141H0.000793457ZM116.793 246.997V191.873L117.774 173.716V3.27148H166.192V246.997H116.793ZM308.672 250.269C287.952 250.269 270.232 245.361 255.51 235.547C240.898 225.623 229.666 211.392 221.814 192.854C214.071 174.207 210.2 151.688 210.2 125.298C210.2 99.0169 214.126 76.5527 221.978 57.9053C229.829 39.1488 241.061 24.8088 255.674 14.8853C270.396 4.96175 288.062 0 308.672 0C329.391 0 347.057 4.96175 361.67 14.8853C376.392 24.8088 387.624 39.0942 395.366 57.7417C403.218 76.3892 407.144 98.9079 407.144 125.298C407.144 151.688 403.272 174.207 395.53 192.854C387.787 211.392 376.555 225.623 361.834 235.547C347.221 245.361 329.5 250.269 308.672 250.269ZM308.672 207.739C318.595 207.739 326.938 204.577 333.699 198.252C340.569 191.818 345.749 182.44 349.238 170.117C352.837 157.795 354.636 142.855 354.636 125.298C354.636 107.632 352.837 92.6375 349.238 80.3149C345.749 67.9924 340.569 58.6141 333.699 52.1802C326.938 45.6372 318.595 42.3657 308.672 42.3657C293.95 42.3657 282.609 49.6175 274.648 64.1211C266.688 78.5156 262.708 98.9079 262.708 125.298C262.708 142.855 264.452 157.795 267.942 170.117C271.541 182.44 276.775 191.818 283.645 198.252C290.515 204.577 298.857 207.739 308.672 207.739ZM422.363 204.141V163.738L523.942 3.27148H558.947V59.541H538.173L474.052 160.957V162.92H618.815V204.141H422.363ZM539.155 246.997V191.873L540.136 173.716V3.27148H588.554V246.997H539.155Z" fill="#0E0E0E"/>
</g>
<defs>
<filter id="filter0_d_2485_7728" x="0" y="0" width="626.814" height="258.269" filterUnits="userSpaceOnUse" color-interpolation-filters="sRGB">
<feFlood flood-opacity="0" result="BackgroundImageFix"/>
<feColorMatrix in="SourceAlpha" type="matrix" values="0 0 0 0 0 0 0 0 0 0 0 0 0 0 0 0 0 0 127 0" result="hardAlpha"/>
<feOffset dx="4" dy="4"/>
<feGaussianBlur stdDeviation="2"/>
<feComposite in2="hardAlpha" operator="out"/>
<feColorMatrix type="matrix" values="0 0 0 0 0 0 0 0 0 0 0 0 0 0 0 0 0 0 0.25 0"/>
<feBlend mode="normal" in2="BackgroundImageFix" result="effect1_dropShadow_2485_7728"/>
<feBlend mode="normal" in="SourceGraphic" in2="effect1_dropShadow_2485_7728" result="shape"/>
</filter>
</defs>
</svg>
