<svg width="80" height="80" viewBox="0 0 80 80" fill="none" xmlns="http://www.w3.org/2000/svg">
<rect width="80" height="80" rx="40" fill="white"/>
<path d="M50.7723 33.7187C50.663 33.484 50.4276 33.3334 50.1683 33.3334H42.2683L50.0649 21.0234C50.1949 20.818 50.2029 20.558 50.0856 20.3454C49.9683 20.132 49.7442 20 49.5015 20H38.8349C38.5823 20 38.3515 20.1427 38.2383 20.3687L28.2383 40.3687C28.1349 40.5747 28.1462 40.82 28.2676 41.0166C28.3896 41.2133 28.6036 41.3333 28.8349 41.3333H35.6902L28.2202 59.0746C28.0929 59.378 28.2062 59.7299 28.4869 59.902C28.5948 59.968 28.7148 59.9999 28.8342 59.9999C29.0255 59.9999 29.2142 59.9179 29.3449 59.7633L50.6783 34.4299C50.8455 34.2313 50.8815 33.954 50.7723 33.7187Z" fill="#0E0E0E"/>
</svg>
