<svg width="84" height="20" viewBox="0 0 84 20" fill="none" xmlns="http://www.w3.org/2000/svg">
<path d="M3.85413 -0.000386209L8.90148 15.2648H9.10035L14.1382 -0.000386209H18.0019L11.1647 19.3936H6.82762L-3.32382e-05 -0.000386209H3.85413ZM24.215 19.6776C22.7567 19.6776 21.4972 19.3746 20.4366 18.7686C19.3823 18.1562 18.5711 17.2913 18.0029 16.1739C17.4347 15.0501 17.1506 13.7275 17.1506 12.2061C17.1506 10.7098 17.4347 9.39671 18.0029 8.26666C18.5774 7.1303 19.3792 6.24646 20.4082 5.61514C21.4372 4.97752 22.6462 4.65871 24.0351 4.65871C24.9316 4.65871 25.7775 4.80391 26.573 5.09431C27.3747 5.3784 28.0818 5.82032 28.6942 6.42007C29.3129 7.01982 29.799 7.78371 30.1525 8.71174C30.5061 9.63345 30.6828 10.7319 30.6828 12.0072V13.0583H18.7605V10.7477H27.3968C27.3905 10.0912 27.2485 9.50719 26.9707 8.99583C26.6929 8.47815 26.3047 8.07095 25.8059 7.77424C25.3135 7.47752 24.739 7.32916 24.0824 7.32916C23.3817 7.32916 22.7662 7.49961 22.2359 7.84052C21.7056 8.17512 21.292 8.61704 20.9953 9.16628C20.7049 9.70921 20.5566 10.3058 20.5503 10.9561V12.9731C20.5503 13.8191 20.7049 14.5451 21.0143 15.1511C21.3236 15.7509 21.7561 16.2117 22.3116 16.5337C22.8672 16.8494 23.5174 17.0072 24.2624 17.0072C24.7611 17.0072 25.2125 16.9377 25.6165 16.7989C26.0206 16.6537 26.371 16.4422 26.6677 16.1644C26.9644 15.8866 27.1885 15.5425 27.34 15.1322L30.5408 15.492C30.3388 16.338 29.9537 17.0766 29.3855 17.7079C28.8236 18.3329 28.1039 18.8191 27.2264 19.1663C26.3489 19.5072 25.3451 19.6776 24.215 19.6776ZM32.5163 19.3936V4.8481H35.8401V7.27234H35.9916C36.2568 6.4327 36.7113 5.7856 37.3553 5.33105C38.0055 4.8702 38.7473 4.63977 39.5806 4.63977C39.77 4.63977 39.9815 4.64924 40.2151 4.66817C40.455 4.6808 40.6539 4.7029 40.8117 4.73446V7.88787C40.6665 7.83737 40.4361 7.79317 40.1204 7.7553C39.8111 7.7111 39.5112 7.68901 39.2208 7.68901C38.5958 7.68901 38.0339 7.82474 37.5352 8.09621C37.0428 8.36136 36.6545 8.73068 36.3704 9.20416C36.0863 9.67765 35.9443 10.2237 35.9443 10.8424V19.3936H32.5163ZM46.8213 19.6492C45.6786 19.6492 44.6559 19.3557 43.7531 18.7686C42.8503 18.1814 42.1369 17.3292 41.6129 16.2117C41.0889 15.0943 40.827 13.737 40.827 12.1398C40.827 10.5236 41.0921 9.15997 41.6224 8.04886C42.159 6.93143 42.8819 6.08863 43.791 5.52045C44.7001 4.94595 45.7133 4.65871 46.8307 4.65871C47.683 4.65871 48.3838 4.80391 48.933 5.09431C49.4823 5.3784 49.9179 5.72247 50.2398 6.12651C50.5618 6.52424 50.8112 6.89987 50.9879 7.2534H51.13V-0.000386209H54.5675V19.3936H51.1963V17.1019H50.9879C50.8112 17.4554 50.5555 17.8311 50.2209 18.2288C49.8863 18.6202 49.4444 18.9548 48.8951 19.2326C48.3459 19.5103 47.6546 19.6492 46.8213 19.6492ZM47.7777 16.8367C48.5037 16.8367 49.1224 16.641 49.6338 16.2496C50.1451 15.8519 50.5334 15.2995 50.7985 14.5924C51.0637 13.8853 51.1963 13.0615 51.1963 12.1208C51.1963 11.1802 51.0637 10.3626 50.7985 9.66818C50.5397 8.97373 50.1546 8.43396 49.6432 8.04886C49.1382 7.66376 48.5163 7.4712 47.7777 7.4712C47.0138 7.4712 46.3762 7.67007 45.8648 8.0678C45.3535 8.46552 44.9684 9.01477 44.7095 9.71552C44.4507 10.4163 44.3213 11.218 44.3213 12.1208C44.3213 13.0299 44.4507 13.8412 44.7095 14.5545C44.9747 15.2616 45.3629 15.8203 45.8743 16.2307C46.392 16.6347 47.0265 16.8367 47.7777 16.8367ZM63.5931 19.6776C62.1348 19.6776 60.8753 19.3746 59.8147 18.7686C58.7604 18.1562 57.9492 17.2913 57.381 16.1739C56.8128 15.0501 56.5288 13.7275 56.5288 12.2061C56.5288 10.7098 56.8128 9.39671 57.381 8.26666C57.9555 7.1303 58.7573 6.24646 59.7863 5.61514C60.8154 4.97752 62.0243 4.65871 63.4132 4.65871C64.3097 4.65871 65.1556 4.80391 65.9511 5.09431C66.7529 5.3784 67.4599 5.82032 68.0723 6.42007C68.691 7.01982 69.1771 7.78371 69.5307 8.71174C69.8842 9.63345 70.061 10.7319 70.061 12.0072V13.0583H58.1386V10.7477H66.775C66.7687 10.0912 66.6266 9.50719 66.3488 8.99583C66.0711 8.47815 65.6828 8.07095 65.1841 7.77424C64.6916 7.47752 64.1171 7.32916 63.4606 7.32916C62.7598 7.32916 62.1443 7.49961 61.614 7.84052C61.0837 8.17512 60.6702 8.61704 60.3735 9.16628C60.083 9.70921 59.9347 10.3058 59.9284 10.9561V12.9731C59.9284 13.8191 60.083 14.5451 60.3924 15.1511C60.7017 15.7509 61.1342 16.2117 61.6897 16.5337C62.2453 16.8494 62.8955 17.0072 63.6405 17.0072C64.1392 17.0072 64.5906 16.9377 64.9947 16.7989C65.3987 16.6537 65.7491 16.4422 66.0458 16.1644C66.3425 15.8866 66.5666 15.5425 66.7182 15.1322L69.9189 15.492C69.7169 16.338 69.3318 17.0766 68.7636 17.7079C68.2017 18.3329 67.482 18.8191 66.6045 19.1663C65.727 19.5072 64.7232 19.6776 63.5931 19.6776ZM74.3849 4.8481L77.3205 10.2174L80.3035 4.8481H83.9304L79.5459 12.1208L84.0061 19.3936H80.3982L77.3205 14.1568L74.2713 19.3936H70.6349L75.0667 12.1208L70.7485 4.8481H74.3849Z" fill="white"/>
</svg>
