<svg width="84" height="20" viewBox="0 0 84 20" fill="none" xmlns="http://www.w3.org/2000/svg">
<path d="M3.85328 -0.000386209L8.90063 15.2648H9.09949L14.1374 -0.000386209H18.001L11.1639 19.3936H6.82676L-0.00088773 -0.000386209H3.85328ZM24.2142 19.6776C22.7558 19.6776 21.4964 19.3746 20.4358 18.7686C19.3815 18.1562 18.5702 17.2913 18.002 16.1739C17.4339 15.0501 17.1498 13.7275 17.1498 12.2061C17.1498 10.7098 17.4339 9.39671 18.002 8.26666C18.5765 7.1303 19.3783 6.24646 20.4074 5.61514C21.4364 4.97752 22.6454 4.65871 24.0342 4.65871C24.9307 4.65871 25.7767 4.80391 26.5721 5.09431C27.3739 5.3784 28.081 5.82032 28.6933 6.42007C29.312 7.01982 29.7981 7.78371 30.1517 8.71174C30.5052 9.63345 30.682 10.7319 30.682 12.0072V13.0583H18.7596V10.7477H27.396C27.3897 10.0912 27.2476 9.50719 26.9699 8.99583C26.6921 8.47815 26.3038 8.07095 25.8051 7.77424C25.3127 7.47752 24.7382 7.32916 24.0816 7.32916C23.3808 7.32916 22.7653 7.49961 22.235 7.84052C21.7047 8.17512 21.2912 8.61704 20.9945 9.16628C20.7041 9.70921 20.5557 10.3058 20.5494 10.9561V12.9731C20.5494 13.8191 20.7041 14.5451 21.0134 15.1511C21.3228 15.7509 21.7552 16.2117 22.3108 16.5337C22.8663 16.8494 23.5166 17.0072 24.2615 17.0072C24.7603 17.0072 25.2116 16.9377 25.6157 16.7989C26.0197 16.6537 26.3701 16.4422 26.6668 16.1644C26.9635 15.8866 27.1877 15.5425 27.3392 15.1322L30.5399 15.492C30.3379 16.338 29.9528 17.0766 29.3846 17.7079C28.8228 18.3329 28.1031 18.8191 27.2255 19.1663C26.348 19.5072 25.3442 19.6776 24.2142 19.6776ZM32.5154 19.3936V4.8481H35.8393V7.27234H35.9908C36.2559 6.4327 36.7105 5.7856 37.3544 5.33105C38.0047 4.8702 38.7465 4.63977 39.5798 4.63977C39.7692 4.63977 39.9807 4.64924 40.2143 4.66817C40.4542 4.6808 40.653 4.7029 40.8109 4.73446V7.88787C40.6657 7.83737 40.4352 7.79317 40.1196 7.7553C39.8102 7.7111 39.5103 7.68901 39.2199 7.68901C38.5949 7.68901 38.0331 7.82474 37.5343 8.09621C37.0419 8.36136 36.6537 8.73068 36.3696 9.20416C36.0855 9.67765 35.9434 10.2237 35.9434 10.8424V19.3936H32.5154ZM46.8204 19.6492C45.6777 19.6492 44.655 19.3557 43.7522 18.7686C42.8495 18.1814 42.1361 17.3292 41.6121 16.2117C41.0881 15.0943 40.8261 13.737 40.8261 12.1398C40.8261 10.5236 41.0913 9.15997 41.6216 8.04886C42.1582 6.93143 42.881 6.08863 43.7901 5.52045C44.6992 4.94595 45.7125 4.65871 46.8299 4.65871C47.6822 4.65871 48.3829 4.80391 48.9322 5.09431C49.4814 5.3784 49.917 5.72247 50.239 6.12651C50.5609 6.52424 50.8103 6.89987 50.9871 7.2534H51.1291V-0.000386209H54.5666V19.3936H51.1954V17.1019H50.9871C50.8103 17.4554 50.5546 17.8311 50.22 18.2288C49.8854 18.6202 49.4435 18.9548 48.8943 19.2326C48.345 19.5103 47.6538 19.6492 46.8204 19.6492ZM47.7769 16.8367C48.5029 16.8367 49.1216 16.641 49.6329 16.2496C50.1443 15.8519 50.5325 15.2995 50.7977 14.5924C51.0628 13.8853 51.1954 13.0615 51.1954 12.1208C51.1954 11.1802 51.0628 10.3626 50.7977 9.66818C50.5389 8.97373 50.1538 8.43396 49.6424 8.04886C49.1373 7.66376 48.5155 7.4712 47.7769 7.4712C47.013 7.4712 46.3753 7.67007 45.864 8.0678C45.3526 8.46552 44.9675 9.01477 44.7087 9.71552C44.4498 10.4163 44.3204 11.218 44.3204 12.1208C44.3204 13.0299 44.4498 13.8412 44.7087 14.5545C44.9738 15.2616 45.3621 15.8203 45.8734 16.2307C46.3911 16.6347 47.0256 16.8367 47.7769 16.8367ZM63.5923 19.6776C62.134 19.6776 60.8745 19.3746 59.8139 18.7686C58.7596 18.1562 57.9484 17.2913 57.3802 16.1739C56.812 15.0501 56.5279 13.7275 56.5279 12.2061C56.5279 10.7098 56.812 9.39671 57.3802 8.26666C57.9547 7.1303 58.7564 6.24646 59.7855 5.61514C60.8145 4.97752 62.0235 4.65871 63.4124 4.65871C64.3088 4.65871 65.1548 4.80391 65.9502 5.09431C66.752 5.3784 67.4591 5.82032 68.0715 6.42007C68.6901 7.01982 69.1763 7.78371 69.5298 8.71174C69.8833 9.63345 70.0601 10.7319 70.0601 12.0072V13.0583H58.1377V10.7477H66.7741C66.7678 10.0912 66.6258 9.50719 66.348 8.99583C66.0702 8.47815 65.6819 8.07095 65.1832 7.77424C64.6908 7.47752 64.1163 7.32916 63.4597 7.32916C62.759 7.32916 62.1434 7.49961 61.6131 7.84052C61.0828 8.17512 60.6693 8.61704 60.3726 9.16628C60.0822 9.70921 59.9338 10.3058 59.9275 10.9561V12.9731C59.9275 13.8191 60.0822 14.5451 60.3915 15.1511C60.7009 15.7509 61.1333 16.2117 61.6889 16.5337C62.2444 16.8494 62.8947 17.0072 63.6396 17.0072C64.1384 17.0072 64.5898 16.9377 64.9938 16.7989C65.3979 16.6537 65.7482 16.4422 66.0449 16.1644C66.3417 15.8866 66.5658 15.5425 66.7173 15.1322L69.9181 15.492C69.716 16.338 69.3309 17.0766 68.7628 17.7079C68.2009 18.3329 67.4812 18.8191 66.6037 19.1663C65.7261 19.5072 64.7223 19.6776 63.5923 19.6776ZM74.3841 4.8481L77.3197 10.2174L80.3026 4.8481H83.9295L79.545 12.1208L84.0053 19.3936H80.3973L77.3197 14.1568L74.2704 19.3936H70.6341L75.0659 12.1208L70.7477 4.8481H74.3841Z" fill="#0E0E0E"/>
</svg>
