<svg width="256" height="256" viewBox="0 0 256 256" fill="none" xmlns="http://www.w3.org/2000/svg">
<rect width="256" height="256" fill="white"/>
<path d="M76.0852 114.818L82.8991 135.426H83.1676L89.9688 114.818H95.1847L85.9545 141H80.0994L70.8821 114.818H76.0852ZM103.572 141.384C101.604 141.384 99.9034 140.974 98.4716 140.156C97.0483 139.33 95.9531 138.162 95.1861 136.653C94.419 135.136 94.0355 133.351 94.0355 131.297C94.0355 129.277 94.419 127.504 95.1861 125.979C95.9616 124.445 97.044 123.251 98.4332 122.399C99.8224 121.538 101.455 121.108 103.33 121.108C104.54 121.108 105.682 121.304 106.756 121.696C107.838 122.08 108.793 122.676 109.619 123.486C110.455 124.295 111.111 125.327 111.588 126.58C112.065 127.824 112.304 129.307 112.304 131.028V132.447H96.2088V129.328H107.868C107.859 128.442 107.668 127.653 107.293 126.963C106.918 126.264 106.393 125.714 105.72 125.314C105.055 124.913 104.28 124.713 103.393 124.713C102.447 124.713 101.616 124.943 100.901 125.403C100.185 125.855 99.6264 126.452 99.2258 127.193C98.8338 127.926 98.6335 128.732 98.625 129.609V132.332C98.625 133.474 98.8338 134.455 99.2514 135.273C99.669 136.082 100.253 136.705 101.003 137.139C101.753 137.565 102.631 137.778 103.636 137.778C104.31 137.778 104.919 137.685 105.464 137.497C106.01 137.301 106.483 137.016 106.884 136.641C107.284 136.266 107.587 135.801 107.791 135.247L112.112 135.733C111.839 136.875 111.32 137.872 110.553 138.724C109.794 139.568 108.822 140.224 107.638 140.693C106.453 141.153 105.098 141.384 103.572 141.384ZM114.779 141V121.364H119.266V124.636H119.471C119.829 123.503 120.442 122.629 121.312 122.016C122.19 121.393 123.191 121.082 124.316 121.082C124.572 121.082 124.857 121.095 125.173 121.121C125.496 121.138 125.765 121.168 125.978 121.21V125.467C125.782 125.399 125.471 125.339 125.045 125.288C124.627 125.229 124.222 125.199 123.83 125.199C122.986 125.199 122.228 125.382 121.555 125.749C120.89 126.107 120.366 126.605 119.982 127.244C119.599 127.884 119.407 128.621 119.407 129.456V141H114.779ZM134.091 141.345C132.548 141.345 131.168 140.949 129.949 140.156C128.73 139.364 127.767 138.213 127.06 136.705C126.352 135.196 125.999 133.364 125.999 131.207C125.999 129.026 126.356 127.185 127.072 125.685C127.797 124.176 128.773 123.038 130 122.271C131.227 121.496 132.595 121.108 134.104 121.108C135.254 121.108 136.2 121.304 136.942 121.696C137.683 122.08 138.271 122.544 138.706 123.089C139.141 123.626 139.477 124.134 139.716 124.611H139.908V114.818H144.548V141H139.997V137.906H139.716C139.477 138.384 139.132 138.891 138.68 139.428C138.229 139.956 137.632 140.408 136.891 140.783C136.149 141.158 135.216 141.345 134.091 141.345ZM135.382 137.548C136.362 137.548 137.197 137.284 137.888 136.756C138.578 136.219 139.102 135.473 139.46 134.518C139.818 133.564 139.997 132.452 139.997 131.182C139.997 129.912 139.818 128.808 139.46 127.871C139.111 126.933 138.591 126.205 137.901 125.685C137.219 125.165 136.379 124.905 135.382 124.905C134.351 124.905 133.49 125.173 132.8 125.71C132.109 126.247 131.589 126.989 131.24 127.935C130.891 128.881 130.716 129.963 130.716 131.182C130.716 132.409 130.891 133.504 131.24 134.467C131.598 135.422 132.122 136.176 132.812 136.73C133.511 137.276 134.368 137.548 135.382 137.548ZM156.733 141.384C154.764 141.384 153.064 140.974 151.632 140.156C150.209 139.33 149.114 138.162 148.347 136.653C147.579 135.136 147.196 133.351 147.196 131.297C147.196 129.277 147.579 127.504 148.347 125.979C149.122 124.445 150.204 123.251 151.594 122.399C152.983 121.538 154.615 121.108 156.49 121.108C157.7 121.108 158.842 121.304 159.916 121.696C160.999 122.08 161.953 122.676 162.78 123.486C163.615 124.295 164.271 125.327 164.749 126.58C165.226 127.824 165.464 129.307 165.464 131.028V132.447H149.369V129.328H161.028C161.02 128.442 160.828 127.653 160.453 126.963C160.078 126.264 159.554 125.714 158.881 125.314C158.216 124.913 157.44 124.713 156.554 124.713C155.608 124.713 154.777 124.943 154.061 125.403C153.345 125.855 152.787 126.452 152.386 127.193C151.994 127.926 151.794 128.732 151.785 129.609V132.332C151.785 133.474 151.994 134.455 152.412 135.273C152.829 136.082 153.413 136.705 154.163 137.139C154.913 137.565 155.791 137.778 156.797 137.778C157.47 137.778 158.079 137.685 158.625 137.497C159.17 137.301 159.643 137.016 160.044 136.641C160.445 136.266 160.747 135.801 160.952 135.247L165.273 135.733C165 136.875 164.48 137.872 163.713 138.724C162.954 139.568 161.983 140.224 160.798 140.693C159.614 141.153 158.258 141.384 156.733 141.384ZM171.302 121.364L175.265 128.612L179.292 121.364H184.188L178.269 131.182L184.29 141H179.42L175.265 133.93L171.148 141H166.239L172.222 131.182L166.393 121.364H171.302Z" fill="#0E0E0E"/>
</svg>
