<svg width="155" height="40" viewBox="0 0 155 40" fill="none" xmlns="http://www.w3.org/2000/svg">
<g clip-path="url(#clip0_336_34)">
<path d="M51.5821 10.2832H48V26.4465H57.9164V23.2794H51.5821V10.2832Z" fill="#161616"/>
<path d="M58.2578 20.9656C58.2578 24.4167 60.5731 26.7101 64.0678 26.7101C67.5407 26.7101 69.856 24.4167 69.856 20.9656C69.856 17.5145 67.5407 15.1992 64.0678 15.1992C60.5731 15.1992 58.2578 17.5145 58.2578 20.9656ZM61.6433 20.9437C61.6433 19.3056 62.6044 18.2135 64.0678 18.2135C65.5094 18.2135 66.4705 19.3056 66.4705 20.9437C66.4705 22.6038 65.5094 23.6959 64.0678 23.6959C62.6044 23.6959 61.6433 22.6038 61.6433 20.9437Z" fill="#161616"/>
<path d="M70.3992 20.7896C70.3992 24.0877 72.5398 26.3156 75.5758 26.3156C77.0393 26.3156 78.3061 25.7914 78.9395 24.9396V26.4467C78.9395 27.9538 78.0003 28.9585 76.3403 28.9585C74.855 28.9585 73.8284 28.2596 73.7629 27.0146H70.3555C70.6613 30.007 72.9766 32.0164 76.1437 32.0164C79.8787 32.0164 82.2377 29.592 82.2377 25.7477V15.5256H79.2016L79.0269 16.6395C78.4153 15.744 77.1266 15.1543 75.6414 15.1543C72.5834 15.1543 70.3992 17.4477 70.3992 20.7896ZM73.8066 20.7022C73.8066 19.1295 74.855 18.0811 76.1874 18.0811C77.7382 18.0811 78.874 19.1077 78.874 20.7022C78.874 22.2967 77.76 23.3888 76.2092 23.3888C74.8769 23.3888 73.8066 22.2967 73.8066 20.7022Z" fill="#161616"/>
<path d="M83.2148 20.9656C83.2148 24.4167 85.5301 26.7101 89.0249 26.7101C92.4978 26.7101 94.813 24.4167 94.813 20.9656C94.813 17.5145 92.4978 15.1992 89.0249 15.1992C85.5301 15.1992 83.2148 17.5145 83.2148 20.9656ZM86.6004 20.9437C86.6004 19.3056 87.5614 18.2135 89.0249 18.2135C90.4664 18.2135 91.4275 19.3056 91.4275 20.9437C91.4275 22.6038 90.4664 23.6959 89.0249 23.6959C87.5614 23.6959 86.6004 22.6038 86.6004 20.9437Z" fill="#161616"/>
<path d="M97.7151 13.8224C98.7635 13.8224 99.6154 12.9705 99.6154 11.9003C99.6154 10.83 98.7635 10 97.7151 10C96.6448 10 95.793 10.83 95.793 11.9003C95.793 12.9705 96.6448 13.8224 97.7151 13.8224ZM96.0114 26.4472H99.397V15.5261H96.0114V26.4472Z" fill="#161616"/>
<path d="M101.367 31.6885H104.687V25.3543C105.32 26.1843 106.762 26.7522 108.269 26.7522C111.523 26.7522 113.489 24.2622 113.402 20.8111C113.314 17.2945 111.283 15.1758 108.247 15.1758C106.696 15.1758 105.233 15.8529 104.621 16.8577L104.446 15.5253H101.367V31.6885ZM104.752 20.9858C104.752 19.3477 105.844 18.2556 107.417 18.2556C109.011 18.2556 110.016 19.3695 110.016 20.9858C110.016 22.6022 109.011 23.7161 107.417 23.7161C105.844 23.7161 104.752 22.624 104.752 20.9858Z" fill="#161616"/>
<path d="M113.762 22.9953C113.849 25.2014 115.597 26.7303 118.349 26.7303C120.992 26.7303 122.827 25.3324 122.827 23.0827C122.827 21.4664 121.866 20.3961 120.074 19.9592L118.131 19.4787C117.432 19.304 116.995 19.1292 116.995 18.5613C116.995 17.9934 117.453 17.6221 118.131 17.6221C118.895 17.6221 119.397 18.1245 119.376 18.8671H122.412C122.324 16.5955 120.599 15.1758 118.196 15.1758C115.772 15.1758 113.959 16.6174 113.959 18.8016C113.959 20.265 114.767 21.4664 116.929 22.0343L118.851 22.5366C119.419 22.6895 119.659 22.9516 119.659 23.3229C119.659 23.869 119.157 24.2185 118.305 24.2185C117.322 24.2185 116.798 23.7598 116.798 22.9953H113.762Z" fill="#161616"/>
<path d="M127.972 26.7304C129.305 26.7304 130.637 26.1188 131.314 25.2233L131.533 26.4465H134.7V15.5254H131.336V21.2044C131.336 22.8425 130.856 23.738 129.305 23.738C128.103 23.738 127.317 23.192 127.317 21.1607V15.5254H123.953V22.3838C123.953 24.9831 125.395 26.7304 127.972 26.7304Z" fill="#161616"/>
<path d="M140.034 26.4467V20.4838C140.034 18.649 141.017 18.1248 141.978 18.1248C143.048 18.1248 143.747 18.7801 143.747 20.1343V26.4467H147.067V20.4838C147.067 18.6272 148.028 18.103 148.989 18.103C150.059 18.103 150.78 18.7582 150.78 20.1343V26.4467H154.057V19.3043C154.057 16.8143 152.746 15.1543 149.928 15.1543C148.356 15.1543 147.067 15.9187 146.499 17.0982C145.844 15.9187 144.708 15.1543 142.895 15.1543C141.694 15.1543 140.58 15.7003 139.925 16.574L139.794 15.5256H136.648V26.4467H140.034Z" fill="#161616"/>
<path d="M0 20C0 10.5719 0 5.85786 2.92893 2.92893C5.85786 0 10.5719 0 20 0C29.4281 0 34.1421 0 37.0711 2.92893C40 5.85786 40 10.5719 40 20C40 29.4281 40 34.1421 37.0711 37.0711C34.1421 40 29.4281 40 20 40C10.5719 40 5.85786 40 2.92893 37.0711C0 34.1421 0 29.4281 0 20Z" fill="#161616"/>
<path d="M23.9987 26C24.551 26 25.0088 26.4521 24.8991 26.9934C24.7052 27.9494 24.2342 28.8355 23.5342 29.5355C22.5966 30.4732 21.3248 31 19.9987 31C18.6726 31 17.4009 30.4732 16.4632 29.5355C15.7632 28.8355 15.2922 27.9494 15.0984 26.9934C14.9886 26.4521 15.4464 26 15.9987 26H23.9987Z" fill="white"/>
<path d="M26.1008 17.7765C25.5673 17.9194 25.2406 18.4775 25.5111 18.959C25.7958 19.4658 26.1896 19.9081 26.6687 20.2514C27.4209 20.7904 28.3367 21.052 29.2602 20.9914C30.1836 20.9309 31.0575 20.5521 31.7329 19.9195C32.4084 19.2869 32.8435 18.4396 32.9643 17.5221C33.0851 16.6046 32.8841 15.6736 32.3954 14.8877C31.9067 14.1019 31.1606 13.5098 30.2843 13.2123C29.408 12.9148 28.4557 12.9304 27.5896 13.2564C27.038 13.464 26.5432 13.7893 26.137 14.2051C25.7511 14.6002 25.9222 15.2239 26.4005 15.5L26.9078 15.7929C27.6793 16.2384 27.5272 17.3943 26.6666 17.6249L26.1008 17.7765Z" fill="white"/>
<path d="M13.8977 17.7765C14.4312 17.9194 14.7579 18.4775 14.4874 18.959C14.2027 19.4658 13.8089 19.9081 13.3299 20.2514C12.5777 20.7904 11.6618 21.052 10.7384 20.9914C9.81496 20.9309 8.94107 20.5521 8.26564 19.9195C7.59021 19.2869 7.15502 18.4396 7.03423 17.5221C6.91344 16.6046 7.11451 15.6736 7.6032 14.8877C8.09188 14.1019 8.83794 13.5098 9.71425 13.2123C10.5905 12.9148 11.5429 12.9304 12.409 13.2564C12.9605 13.464 13.4554 13.7893 13.8616 14.2051C14.2475 14.6002 14.0763 15.2239 13.598 15.5L13.0907 15.7929C12.3192 16.2384 12.4714 17.3943 13.3319 17.6249L13.8977 17.7765Z" fill="white"/>
</g>
<defs>
<clipPath id="clip0_336_34">
<rect width="155" height="40" fill="white"/>
</clipPath>
</defs>
</svg>
