<svg width="18" height="19" viewBox="0 0 18 19" fill="none" xmlns="http://www.w3.org/2000/svg">
<path d="M6.44053 6.67698L8.38867 2.75282C8.63876 2.24906 9.36124 2.24906 9.61133 2.75282L11.5595 6.67698L15.9161 7.31013C16.4751 7.39136 16.6979 8.07453 16.2932 8.46644L13.1413 11.5188L13.8852 15.8311C13.9807 16.3848 13.3961 16.8071 12.8959 16.5456L9 14.5085L5.1041 16.5456C4.60395 16.8071 4.01932 16.3848 4.11484 15.8311L4.85869 11.5188L1.70681 8.46644C1.30213 8.07453 1.52491 7.39136 2.08389 7.31013L6.44053 6.67698Z" fill="#FFE600"/>
<path fill-rule="evenodd" clip-rule="evenodd" d="M8.93573 2.95401C8.92105 2.96267 8.90566 2.97645 8.89251 3.00294L6.94437 6.9271C6.86225 7.09251 6.70418 7.20707 6.52144 7.23363L2.1648 7.86678C2.06347 7.88151 2.03228 7.99858 2.09814 8.06237L5.25002 11.1147C5.38361 11.2441 5.44463 11.4312 5.41301 11.6144L4.66916 15.9267C4.6642 15.9554 4.66852 15.9747 4.67481 15.9892C4.68206 16.0059 4.69549 16.0236 4.71546 16.0381C4.73543 16.0525 4.75726 16.0602 4.77704 16.062C4.79453 16.0637 4.8161 16.0614 4.84347 16.0471L8.73937 14.01C8.90264 13.9246 9.09738 13.9246 9.26065 14.01L13.1566 16.0471C13.1839 16.0614 13.2055 16.0637 13.223 16.062C13.2428 16.0602 13.2646 16.0525 13.2846 16.0381C13.3045 16.0236 13.318 16.0059 13.3252 15.9892C13.3315 15.9747 13.3358 15.9554 13.3309 15.9267L12.587 11.6144C12.5554 11.4312 12.6164 11.2441 12.75 11.1147L15.9019 8.06237C15.9677 7.99858 15.9366 7.88151 15.8352 7.86678L11.4786 7.23363C11.2958 7.20707 11.1378 7.09251 11.0557 6.9271L9.10751 3.00294C9.09436 2.97645 9.07896 2.96267 9.06429 2.95401C9.04758 2.94416 9.02531 2.9375 9.00001 2.9375C8.97471 2.9375 8.95244 2.94416 8.93573 2.95401ZM7.88485 2.50269C8.34171 1.58244 9.65831 1.58244 10.1152 2.50269L11.9322 6.16273L15.997 6.75347C17.0136 6.90122 17.428 8.15048 16.6845 8.87051L13.7462 11.7161L14.4395 15.7354C14.6155 16.7556 13.5417 17.518 12.6353 17.0441L9.00001 15.1432L5.36475 17.0441C4.45832 17.518 3.38456 16.7556 3.56054 15.7354L4.25386 11.7161L1.3155 8.87051C0.571999 8.15048 0.986382 6.90122 2.003 6.75347L6.06783 6.16273L7.88485 2.50269Z" fill="#FFE600"/>
</svg>
