<svg width="163" height="42" viewBox="0 0 163 42" fill="none" xmlns="http://www.w3.org/2000/svg">
<path d="M30.2102 17.7188C33.3482 17.7188 34.0542 19.0817 34.0542 20.7817C34.0542 22.5837 33.2002 23.8748 30.2232 23.8748C27.2652 23.8748 26.4102 22.6587 26.4102 20.7817C26.4102 18.9347 27.3422 17.7188 30.2102 17.7188Z" fill="#161616"/>
<path d="M63.0031 17.7188C66.1411 17.7188 66.8471 19.0817 66.8471 20.7817C66.8471 22.5837 65.9921 23.8748 63.0161 23.8748C60.0591 23.8748 59.2031 22.6587 59.2031 20.7817C59.2031 18.9347 60.1351 17.7188 63.0031 17.7188Z" fill="#161616"/>
<path fill-rule="evenodd" clip-rule="evenodd" d="M2.42578 38.4999V3.04688H161.004V38.4999H2.42578ZM78.0038 36.4999H159.004V5.04688H78.0038V36.4999ZM30.224 26.8929C35.795 26.8929 38.137 24.4899 38.137 20.7369C38.137 16.9229 35.499 14.6559 30.224 14.6559C25.03 14.6559 22.296 17.1179 22.296 20.7369C22.296 24.8209 25.164 26.8929 30.224 26.8929ZM10.855 14.9259V26.7129H22.099V23.5739H14.923V14.9259H10.855ZM50.721 26.7129L50.616 25.5709C49.2551 26.5421 47.5987 27.0095 45.931 26.8929C43.424 26.8929 41.336 26.1419 40.165 24.6259C39.3926 23.5191 39.0026 22.1905 39.054 20.8419C39.0101 19.5216 39.4136 18.2252 40.199 17.1629C41.384 15.6919 43.532 14.7159 46.73 14.7159C50.409 14.7159 52.571 15.8419 53.501 17.7339C53.7006 18.1795 53.8179 18.6575 53.847 19.1449H49.955C49.8569 18.8487 49.6744 18.5877 49.43 18.3939C48.6547 17.8799 47.7289 17.6422 46.802 17.7189C46.2583 17.653 45.7067 17.7032 45.1839 17.8663C44.6611 18.0294 44.1788 18.3016 43.769 18.6649C43.3036 19.3019 43.0851 20.0861 43.154 20.8719C43.1 21.6216 43.3009 22.3676 43.724 22.9889C44.1375 23.3742 44.6291 23.666 45.1653 23.8448C45.7016 24.0235 46.2699 24.085 46.832 24.0249C47.9483 24.1157 49.0566 23.7714 49.925 23.0639C50.1115 22.8307 50.2401 22.5565 50.3 22.2639H46.112V19.7309H53.949V26.7129H50.721ZM63.018 26.8929C68.588 26.8929 70.931 24.4899 70.931 20.7369C70.931 16.9229 68.2889 14.6559 63.018 14.6559C57.824 14.6559 55.09 17.1179 55.09 20.7369C55.09 24.8209 57.958 26.8929 63.018 26.8929Z" fill="#161616"/>
<path d="M84.8555 26.6679V14.8809H87.7555V26.6679H84.8555Z" fill="#161616"/>
<path d="M102.65 21.7436C101.915 22.7046 100.65 23.1436 98.867 23.1546C98.491 23.1546 93.506 23.1396 93.506 23.1396V26.6686H90.668V14.8816H98.868C99.5252 14.8121 100.19 14.8818 100.818 15.0861C101.447 15.2905 102.025 15.6249 102.516 16.0676C103.164 16.9118 103.479 17.9644 103.402 19.0256C103.468 19.9908 103.203 20.9497 102.65 21.7436ZM100.323 17.9006C100.023 17.4506 99.376 17.2006 98.281 17.2006H93.491V20.7886H98.25C99.421 20.7886 100.038 20.5486 100.323 20.0826C100.492 19.7543 100.565 19.3846 100.533 19.0166C100.558 18.6328 100.486 18.2489 100.323 17.9006Z" fill="#161616"/>
<path d="M111.763 26.8482C106.417 26.8482 104.781 24.8482 104.781 22.8692H107.814C107.814 23.8452 109.15 24.5812 111.898 24.5812C114.63 24.5812 115.351 24.1002 115.351 23.3192C115.351 22.4482 114.811 22.1782 112.273 21.8932C111.773 21.8482 110.412 21.6832 109.901 21.6082C106.301 21.2022 104.915 20.1362 104.915 18.2292C104.915 16.2172 106.943 14.7012 111.342 14.7012C116.117 14.7012 117.949 16.5782 117.949 18.5302H114.949C114.949 17.5392 113.823 16.9682 111.165 16.9682C108.432 16.9682 107.847 17.3432 107.847 18.0792C107.847 18.8452 108.447 19.0852 111.347 19.4302C112.008 19.5212 113.479 19.6862 113.884 19.7302C116.948 20.0452 118.329 21.1562 118.329 23.1232C118.324 25.4662 116.222 26.8482 111.763 26.8482Z" fill="#161616"/>
<path d="M126.869 26.8329C122.951 26.8329 120.398 25.2859 120.398 22.0329V14.8809H123.265V22.0729C123.265 23.5599 124.482 24.5499 126.989 24.5499C129.256 24.5499 130.608 23.6199 130.608 22.0729V14.8809H133.446V22.2999C133.446 25.2569 131.073 26.8329 126.869 26.8329Z" fill="#161616"/>
<path d="M148.987 26.6679V18.7999L145.308 26.6679H142.516L138.942 18.7999V26.6679H136.242V14.8809H139.9L143.954 23.8599L148.098 14.8809H151.698V26.6679H148.987Z" fill="#161616"/>
</svg>
