<svg width="235" height="41" viewBox="0 0 235 41" fill="none" xmlns="http://www.w3.org/2000/svg">
<g clip-path="url(#clip0_336_26)">
<path d="M90.4127 12.7441C90.4127 20.3636 90.4127 23.3715 80.3047 23.3715C90.4127 23.3715 90.4127 26.3793 90.4127 33.9989C90.4127 26.4246 90.4127 23.3715 100.362 23.3715C90.4127 23.3715 90.4127 20.3184 90.4127 12.7441Z" fill="#161616"/>
<path fill-rule="evenodd" clip-rule="evenodd" d="M40.5746 40.3689C37.0788 40.3689 34.0055 39.6698 31.3546 38.2715C28.7327 36.8441 26.679 34.8632 25.1934 32.3288C24.9541 31.9076 24.7344 31.475 24.5344 31.031L23.3605 39.7571H0.0703125V39.3203H0.114049C1.16272 39.3203 2.00753 39.0434 2.64839 38.49C3.28925 37.9365 3.60968 37.1355 3.60968 36.0867V10.9175C3.60968 9.86887 3.28925 9.02397 2.64839 8.38311C2.00753 7.74225 1.16272 7.42182 0.114049 7.42182H0.0703125V6.98482H14.0095V7.42182H13.8347C12.7859 7.42182 11.9411 7.74225 11.3003 8.38311C10.6594 9.02397 10.339 9.86887 10.339 10.9175V36.2615C10.339 37.1937 10.5575 37.922 10.9944 38.4463C11.4605 38.9415 12.2616 39.1891 13.3977 39.1891H14.3153C16.908 39.1891 19.0928 38.3881 20.8698 36.7858C22.603 35.2231 23.7126 33.037 24.1987 30.2274C23.4052 28.172 23.0086 25.8865 23.0086 23.3711C23.0086 19.9627 23.7368 16.9914 25.1934 14.4569C26.679 11.8934 28.7327 9.91242 31.3546 8.51413C34.0055 7.08675 37.0788 6.37305 40.5746 6.37305C43.9861 6.37305 46.9813 7.05283 49.5605 8.4122C52.3116 7.05283 55.5066 6.37305 59.1456 6.37305C60.2817 6.37305 61.2138 6.41679 61.9421 6.50408C62.6995 6.56246 63.3696 6.63529 63.9521 6.72258C64.5348 6.81005 65.1757 6.89734 65.8748 6.98482C66.6031 7.04301 67.5062 7.07211 68.584 7.07211L69.8949 15.8116H69.4579C68.9335 13.0441 67.7538 10.8738 65.9186 9.30066C64.1124 7.72761 61.8547 6.94108 59.1456 6.94108C57.4851 6.94108 55.9703 7.33434 54.6011 8.12087C53.6992 8.63904 52.8857 9.28991 52.1608 10.0737C51.8234 10.4382 51.5052 10.8317 51.2062 11.2539C51.1725 11.3015 51.1389 11.3495 51.1057 11.398C50.8246 11.8152 50.561 12.2574 50.3148 12.7246C49.9908 13.3393 49.6969 13.998 49.4334 14.6989C49.3243 14.9882 49.2205 15.2851 49.1219 15.5894C49.0202 15.9032 48.9239 16.2249 48.8332 16.5544C48.3088 18.5644 48.0467 20.793 48.0467 23.2399C48.0467 25.4955 48.2521 27.5697 48.6631 29.4628L47.9686 31.5253C47.6052 32.6046 47.1702 33.5489 46.6704 34.3669C46.3628 34.8523 46.0371 35.2881 45.6947 35.6771L45.662 35.7144C44.5804 34.7292 43.6565 33.6007 42.8905 32.3288C41.3465 29.7652 40.5746 26.7501 40.5746 23.2836C40.5746 19.9044 41.3465 16.9477 42.8905 14.4133C43.9446 12.6827 45.2841 11.2172 46.9087 10.0164C46.252 9.25414 45.5244 8.62236 44.7257 8.12087C43.4731 7.33434 42.0893 6.94108 40.5746 6.94108C39.0597 6.94108 37.676 7.33434 36.4233 8.12087C35.1707 8.9074 34.1075 10.0144 33.2335 11.442C32.3305 12.8694 31.6313 14.6025 31.1361 16.6417C30.67 18.6517 30.4369 20.8803 30.4369 23.3273C30.4369 25.7744 30.67 28.0028 31.1361 30.0128C31.6313 32.0229 32.3305 33.7416 33.2335 35.169C34.1075 36.5966 35.1707 37.7035 36.4233 38.49C37.676 39.2766 39.0597 39.6698 40.5746 39.6698C42.0893 39.6698 43.4731 39.2766 44.7257 38.49C45.9783 37.7035 47.0562 36.5966 47.9592 35.169C48.8332 33.7416 49.5031 32.0229 49.9692 30.0128C50.4645 28.0028 50.7121 25.7744 50.7121 23.3273C50.7121 21.1149 50.5097 19.081 50.1048 17.2258L50.8545 15.2325C51.2812 14.0979 51.7855 13.1075 52.3609 12.252C52.5146 12.0287 52.6734 11.8156 52.8372 11.6123C52.9795 11.4355 53.1256 11.2663 53.2755 11.1043L53.3083 11.0767C54.3227 12.0606 55.1905 13.1872 55.912 14.4569C57.3977 16.9914 58.1405 19.9627 58.1405 23.3711C58.1405 26.7794 57.3977 29.7652 55.912 32.3288C54.9245 34.047 53.6625 35.5109 52.126 36.7204C52.7711 37.4264 53.4796 38.0163 54.2516 38.49C55.5625 39.2766 57.019 39.6698 58.6212 39.6698C59.8156 39.6698 60.9517 39.466 62.0296 39.0581C63.1365 38.6502 63.9813 38.1405 64.5639 37.5287V26.3862C64.5639 25.3374 64.2435 24.4925 63.6026 23.8516C62.9617 23.2108 62.1169 22.8903 61.0682 22.8903H60.9372V22.4533H72.8631C72.9834 19.4266 73.7056 16.7612 75.03 14.4569C76.5156 11.8934 78.5694 9.91242 81.1911 8.51413C83.8421 7.08675 86.9154 6.37305 90.4112 6.37305C93.9068 6.37305 96.9656 7.08675 99.5873 8.51413C102.238 9.91242 104.292 11.8934 105.749 14.4569C106.706 16.0898 107.355 17.9041 107.695 19.8997V10.9175C107.695 9.86887 107.375 9.02397 106.734 8.38311C106.093 7.74225 105.248 7.42182 104.199 7.42182H104.156V6.98482H130.447C132.69 7.01391 134.642 7.40718 136.302 8.16461C137.992 8.89294 139.302 9.91242 140.235 11.2235C140.586 11.7018 140.872 12.2114 141.095 12.752C141.453 11.0645 142.323 9.68095 143.704 8.60161C145.598 7.11584 148.089 6.37305 151.176 6.37305C151.934 6.37305 152.546 6.40215 153.012 6.46053C153.209 6.48369 153.401 6.50908 153.589 6.53688C153.873 6.57895 154.147 6.62621 154.41 6.67884C154.876 6.76632 155.415 6.83915 156.027 6.89734C156.639 6.95572 157.425 6.98482 158.386 6.98482H172.19V7.42182H172.059C171.01 7.42182 170.166 7.74225 169.525 8.38311C168.884 9.02397 168.563 9.86887 168.563 10.9175V28.265C168.563 31.3529 169.35 33.8 170.923 35.606C172.525 37.3831 174.681 38.2715 177.39 38.2715C180.128 38.2715 182.284 37.3684 183.857 35.5624C185.43 33.7271 186.217 31.2947 186.217 28.265V11.573C186.217 10.3204 185.838 9.32994 185.081 8.60161C184.323 7.87327 183.318 7.48001 182.066 7.42182V6.98482H196.487L207.149 31.6733L217.811 6.98482H225.982V7.42182C225.05 7.42182 224.263 7.69851 223.622 8.25208C222.981 8.80547 222.69 9.5629 222.748 10.5242L224.977 36.3925C225.122 37.3831 225.588 38.1259 226.375 38.6211C227.191 39.1163 227.992 39.3639 228.778 39.3639V39.7571H215.232V39.3639C215.728 39.3639 216.237 39.2475 216.762 39.0143C217.286 38.7814 217.709 38.4463 218.029 38.0093C218.379 37.5723 218.51 37.0626 218.422 36.48L216.281 12.3595L204.134 40.3689L191.899 12.3158L189.845 35.3002C189.728 36.4653 190.063 37.4122 190.85 38.1405C191.636 38.8687 192.598 39.2619 193.734 39.3203V39.7571H184.995V39.3203C186.101 39.2619 187.034 38.8542 187.791 38.0968C188.549 37.3393 188.985 36.3925 189.102 35.2565L191.287 11.0923C190.733 9.95616 190.034 9.06771 189.189 8.42685C189.045 8.30842 188.894 8.20056 188.734 8.10308C188.505 8.24689 188.292 8.41295 188.096 8.60161C187.338 9.32994 186.96 10.3204 186.96 11.573V28.265C186.96 30.7121 186.45 32.8387 185.43 34.6447C184.44 36.4509 182.998 37.8636 181.104 38.8833C179.24 39.8737 177.011 40.3689 174.419 40.3689C171.855 40.3689 169.627 39.8737 167.733 38.8833C165.84 37.8927 164.368 36.4944 163.32 34.6884C162.3 32.8531 161.79 30.7121 161.79 28.265V10.9175C161.79 9.86887 161.47 9.02397 160.829 8.38311C160.211 7.76541 159.404 7.44554 158.408 7.42312L158.823 15.8116H158.386C157.979 13.1023 157.105 10.9612 155.765 9.38814C154.424 7.81508 152.808 7.02855 150.914 7.02855C149.574 7.02855 148.496 7.42182 147.681 8.20834C146.894 8.99487 146.501 10.0437 146.501 11.3545C146.501 12.4905 146.865 13.583 147.593 14.6318C148.351 15.6513 149.647 16.8457 151.482 18.2149L153.361 19.6132C155.284 21.0115 156.799 22.3077 157.906 23.5021C159.042 24.6673 159.857 25.8035 160.353 26.9104C160.848 28.0174 161.096 29.1972 161.096 30.4498C161.096 32.3724 160.615 34.0767 159.653 35.5622C158.692 37.048 157.352 38.2132 155.633 39.0581C153.944 39.8737 151.948 40.3107 149.647 40.3689C148.89 40.3689 148.263 40.3398 147.768 40.2816C147.302 40.2232 146.836 40.1504 146.37 40.0631C145.904 39.9756 145.336 39.9028 144.666 39.8446C143.996 39.7864 143.078 39.7571 141.913 39.7571L140.383 28.396H140.908C141.345 31.9791 142.335 34.7466 143.879 36.6985C145.452 38.6211 147.462 39.5824 149.909 39.5824C151.715 39.5824 153.186 39.0727 154.323 38.053C155.459 37.0334 156.027 35.7079 156.027 34.0767C156.027 33.3774 155.896 32.7075 155.633 32.0666C155.4 31.4258 154.993 30.7412 154.41 30.0128C153.827 29.2847 153.055 28.4981 152.094 27.6532C151.133 26.7794 149.938 25.8035 148.511 24.7256L146.719 23.3711C144.535 21.7106 143.02 20.2248 142.175 18.914C141.908 18.5 141.683 18.0743 141.501 17.6369C141.282 18.694 140.86 19.6586 140.235 20.5308C139.302 21.8416 137.962 22.8759 136.215 23.6331C134.496 24.3615 132.457 24.7256 130.097 24.7256H126.077V35.8245C126.077 36.8732 126.397 37.718 127.038 38.3588C127.679 38.9999 128.524 39.3203 129.573 39.3203H129.66V39.7571H104.156V39.3203H104.199C105.248 39.3203 106.093 38.9999 106.734 38.3588C107.375 37.718 107.695 36.8732 107.695 35.8245V26.848C107.355 28.8503 106.706 30.6772 105.749 32.3288C104.292 34.8632 102.238 36.8441 99.5873 38.2715C96.9656 39.6698 93.9068 40.3689 90.4112 40.3689C86.9154 40.3689 83.8421 39.6698 81.1911 38.2715C78.5694 36.8441 76.5156 34.8632 75.03 32.3288C73.5794 29.7758 72.8511 26.8041 72.8451 23.4131C72.6488 23.5373 72.4664 23.6834 72.2982 23.8516C71.6573 24.4925 71.3369 25.3374 71.3369 26.3862V37.5287C70.7543 38.1112 69.8221 38.6211 68.5403 39.0581C67.2877 39.466 65.8603 39.7864 64.258 40.0194C62.685 40.2525 61.1119 40.3689 59.5389 40.3689C55.7363 40.3689 52.4248 39.6956 49.6044 38.3486C47.0153 39.6956 44.0053 40.3689 40.5746 40.3689ZM94.5623 38.49C93.3097 39.2766 91.9259 39.6698 90.4112 39.6698C88.8963 39.6698 87.5126 39.2766 86.2599 38.49C85.0073 37.7035 83.9441 36.5966 83.0701 35.169C82.1671 33.7416 81.4679 32.0229 80.9726 30.0128C80.5066 28.0028 80.2735 25.7744 80.2735 23.3273C80.2735 20.8803 80.5066 18.6517 80.9726 16.6417C81.4679 14.6025 82.1671 12.8694 83.0701 11.442C83.9441 10.0144 85.0073 8.9074 86.2599 8.12087C87.5126 7.33434 88.8963 6.94108 90.4112 6.94108C91.9259 6.94108 93.3097 7.33434 94.5623 8.12087C95.8149 8.9074 96.8928 10.0144 97.7958 11.442C98.6698 12.8694 99.3397 14.6025 99.8058 16.6417C100.301 18.6517 100.549 20.8803 100.549 23.3273C100.549 25.7744 100.301 28.0028 99.8058 30.0128C99.3397 32.0229 98.6698 33.7416 97.7958 35.169C96.8928 36.5966 95.8149 37.7035 94.5623 38.49ZM118.386 38.3588C117.977 38.7684 117.484 39.0471 116.908 39.195C116.332 39.0471 115.839 38.7684 115.429 38.3588C114.789 37.718 114.468 36.8732 114.468 35.8245V10.9175C114.468 9.86887 114.789 9.02397 115.429 8.38311C115.839 7.97354 116.332 7.6948 116.908 7.5471C117.484 7.6948 117.977 7.97354 118.386 8.38311C119.027 9.02397 119.348 9.86887 119.348 10.9175V35.8245C119.348 36.8732 119.027 37.718 118.386 38.3588ZM128.655 24.1576H126.077V7.55284H128.611C129.864 7.55284 130.956 7.91701 131.889 8.64535C132.821 9.3444 133.535 10.3204 134.03 11.573C134.554 12.8256 134.816 14.253 134.816 15.8552C134.816 17.4575 134.554 18.8849 134.03 20.1375C133.535 21.3901 132.821 22.3805 131.889 23.1088C130.986 23.8081 129.908 24.1576 128.655 24.1576Z" fill="#161616"/>
<path d="M234.534 3.40553C234.534 5.08249 233.175 6.44192 231.498 6.44192C229.821 6.44192 228.461 5.08249 228.461 3.40553C228.461 1.72858 229.821 0.369141 231.498 0.369141C233.175 0.369141 234.534 1.72858 234.534 3.40553Z" fill="#161616"/>
</g>
<defs>
<clipPath id="clip0_336_26">
<rect width="235" height="41" fill="white"/>
</clipPath>
</defs>
</svg>
